
<svg version="1.1" id="Layer_1" xmlns="http://www.w3.org/2000/svg" xmlns:xlink="http://www.w3.org/1999/xlink" x="0px" y="0px"
	 viewBox="0 0 105 105" style="enable-background:new 0 0 105 105;" xml:space="preserve" fill="white">
<g>
	<path d="M52.5,105C23.6,105,0,81.4,0,52.5C0,23.6,23.6,0,52.5,0C81.4,0,105,23.6,105,52.5C105,81.4,81.4,105,52.5,105z M52.5,5
		C26.3,5,5,26.3,5,52.5S26.3,100,52.5,100S100,78.7,100,52.5S78.7,5,52.5,5z"/>
</g>
<g>
	<g>
		<rect x="50" y="26.9" width="5" height="30.1"/>
	</g>
	<g>
		<g>
			<path d="M52.5,78.1c-3.7-9.9-10-22.3-16.6-29.9l16.6,6l16.6-6C62.5,55.9,56.2,68.2,52.5,78.1z"/>
		</g>
	</g>
</g>
</svg>
