<?xml version="1.0" encoding="utf-8"?>
<!-- Generator: Adobe Illustrator 20.0.0, SVG Export Plug-In . SVG Version: 6.00 Build 0)  -->
<svg version="1.1" id="Layer_1" xmlns="http://www.w3.org/2000/svg" xmlns:xlink="http://www.w3.org/1999/xlink" x="0px" y="0px"
	 viewBox="0 0 154.3 71.9" style="enable-background:new 0 0 154.3 71.9;" xml:space="preserve">
<style type="text/css">
	.st0{fill:#FFFFFF;}
</style>
<path class="st0" d="M154.3,58.5c0-7.4-6-13.3-13.3-13.3c-1.2,0-2.4,0.2-3.5,0.5c-2-10.1-10.9-17.8-21.6-17.8
	c-2.8,0-5.4,0.5-7.9,1.5C105,12.7,90.3,0,72.8,0C55.1,0,40.5,12.8,37.6,29.6c-2.2-0.8-4.6-1.2-7-1.2c-11.1,0-20.2,8.6-21,19.4
	C4.1,49,0,53.9,0,59.7c0,6.6,5.3,12,11.8,12.2v0h104c0,0,0,0,0,0c0,0,0,0,0,0h24.2c0.3,0,0.6,0,0.9,0c0.3,0,0.6,0,0.9,0h0.1v0
	C148.8,71.4,154.3,65.6,154.3,58.5z"/>
</svg>
