<svg xmlns="http://www.w3.org/2000/svg" viewBox="0 0 641.21 165.07"><defs><style>.cls-1{fill:#fff;}</style></defs><title>Asset 1</title><g id="Layer_2" data-name="Layer 2"><g id="Background"><rect class="cls-1" x="0.19" y="146.41" width="5" height="2" transform="translate(-48.92 9.3) rotate(-19.44)"/><path class="cls-1" d="M15.12,144.08l-.67-1.89,9.74-3.44.67,1.89Zm19.48-6.88-.67-1.89,9.74-3.44.67,1.89Zm19.48-6.88-.67-1.89L63.15,125l.67,1.89Zm19.48-6.88-.67-1.89,9.74-3.44L83.3,120ZM93,116.58l-.67-1.89,9.74-3.44.67,1.89Zm87.8-.31-9.9-2.95.57-1.92,9.9,2.95Zm10.4-.29-.76-1.85L200,110.2l.76,1.85Zm-30.2-5.6-9.9-2.95.57-1.92,9.9,2.95Zm-48.53-.67-.67-1.89,9.74-3.44.67,1.89Zm97.84-1.58-.76-1.85,9.55-3.92.76,1.85Zm-69.11-3.65-7.55-2.25-1.7.6-.67-1.89,2.31-.81,8.17,2.43Z"/><polygon class="cls-1" points="237.84 100.44 233.69 98.54 229.46 100.27 228.7 98.42 233.73 96.36 238.67 98.62 237.84 100.44"/><path class="cls-1" d="M475.05,131.81l-10.19-1.51.29-2,10.19,1.51Zm-169.53-.43-2.13-1,.83-1.82,1.46.67,7.65-2.18.55,1.92Zm149.15-2.58-10.19-1.51.29-2L455,126.82Zm-130.89-2.61-.55-1.92,9.9-2.82.55,1.92ZM294,126.12l-9.37-4.28.83-1.82,9.37,4.28Zm140.28-.34-10.19-1.51.29-2,10.19,1.51Zm-20.37-3-10.19-1.51.29-2,10.19,1.51Zm-70.34-2.22-.55-1.92,9.9-2.82.55,1.92Zm50-.79-10.19-1.51.29-2,10.19,1.51Zm-118.26-2.2-9.36-4.28.83-1.82,9.36,4.28Zm97.89-.82L363,115.24l.29-2,10.19,1.51ZM256.57,109l-9.37-4.28.83-1.82,9.37,4.28Z"/><polygon class="cls-1" points="490.69 134.12 485.24 133.31 485.53 131.34 489.98 131.99 493.11 128.78 494.54 130.18 490.69 134.12"/><path class="cls-1" d="M502.36,122.19l-1.43-1.4,7.81-8,1.43,1.4Zm15.63-16-1.43-1.4,7.81-8,1.43,1.4Zm15.63-16-1.43-1.4,7.81-8,1.43,1.4Z"/><polygon class="cls-1" points="549.24 74.25 547.81 72.86 551.89 68.69 556.73 71.95 555.61 73.61 552.15 71.28 549.24 74.25"/><rect class="cls-1" x="569.52" y="76.7" width="2" height="11.55" transform="translate(182.91 509.15) rotate(-55.97)"/><polygon class="cls-1" points="589.38 96.41 584.32 93 585.44 91.34 588.67 93.52 590.53 90.09 592.29 91.05 589.38 96.41"/><path class="cls-1" d="M597.46,81.53l-1.76-1L600.87,71l1.76,1Zm10.34-19-1.76-1L611.21,52,613,53Zm10.34-19-1.76-1L621.55,33l1.76,1Zm10.34-19-1.76-1,5.17-9.52,1.76,1Z"/><rect class="cls-1" x="636.64" y="1.67" width="5" height="2" transform="translate(331.65 563) rotate(-61.48)"/><polygon class="cls-1" points="0.33 155.25 133.67 108.17 186.4 123.88 233.71 104.45 305.61 137.32 362.44 121.14 490.33 140.06 552.02 76.98 589.02 101.96 640.33 7.48 640.33 165.07 0.33 165.07 0.33 155.25"/></g></g></svg>