<?xml version="1.0" encoding="utf-8"?>
<!-- Generator: Adobe Illustrator 20.0.0, SVG Export Plug-In . SVG Version: 6.00 Build 0)  -->
<svg version="1.1" id="Layer_1" xmlns="http://www.w3.org/2000/svg" xmlns:xlink="http://www.w3.org/1999/xlink" x="0px" y="0px"
	 viewBox="0 0 219.1 220.2" style="enable-background:new 0 0 219.1 220.2;" xml:space="preserve">
<style type="text/css">
	.st0{fill:#FFFFFF;}
	.st1{fill:#013E7E;}
	.st2{fill:#5071A7;}
</style>
<g>
	<polygon class="st0" points="219.1,109.5 109.6,0 0,109.5 28.8,138.3 21.3,143.1 55.8,178.4 67.8,178.4 109.5,220.2 151.3,178.4 
		163.3,178.4 197.9,143.1 190.3,138.5 	"/>
	<path class="st1" d="M74.7,176.4h69.7l-34.8,34.8L74.7,176.4z M211,109.5L109.5,8L8.1,109.5L38,139.3h143.1L211,109.5z
		 M188.6,143.9H30.5l27.7,28h102.8L188.6,143.9z"/>
	<path class="st2" d="M188.6,143.9h-11.8l4.3-4.3L188.6,143.9z M30.5,143.9h11.8l-4.3-4.3L30.5,143.9z"/>
	<g>
		<path class="st0" d="M84.7,71.9v-4H61.9v4h1.7c1.9,0,3.4,1.5,3.4,3.4v45.1c0,1.9-1.5,3.4-3.4,3.4h-1.7v4h22.8v-4H83
			c-1.9,0-3.4-1.5-3.4-3.4V75.3c0-1.9,1.5-3.4,3.4-3.4H84.7z"/>
		<path class="st0" d="M157.2,71.9v-4h-22.8v4h1.7c1.9,0,3.4,1.5,3.4,3.4v45.1c0,1.9-1.5,3.4-3.4,3.4h-1.7v4h22.8v-4h-1.7
			c-1.9,0-3.4-1.5-3.4-3.4V75.3c0-1.9,1.5-3.4,3.4-3.4H157.2z"/>
		<path class="st0" d="M89,68.2h29.4c0,0,12.4,0.8,12.4,13.6S118.2,97,118.2,97s14.6,3.4,14.6,12.8s0.2,10.6-4.9,15.1
			c-3.7,3.3-9.9,3.3-9.9,3.3H89v-4h2.3c2.2,0,4-1.8,4-4V76.2c0-2.2-1.8-4-4-4H89V68.2z M118.5,84.8v-2.1c0-5.9-4.7-10.6-10.6-10.6
			h-1.1v23.3h1.1C113.7,95.4,118.5,90.6,118.5,84.8z M106.6,99.3v20c0,0,0.2,4.7,4.5,4.7s8.6-2.5,8.6-7.8c0-5.2,0-7.7,0-7.7
			S119.8,99.3,106.6,99.3z"/>
	</g>
	<polygon class="st1" points="176.8,143.9 42.3,143.9 70.4,171.9 148.7,171.9 	"/>
	<g>
		<path class="st0" d="M55.7,161.2c0.6-0.1,1-0.2,1.2-0.3c0.3-0.2,0.5-0.4,0.6-0.7c0.1-0.3,0.1-0.7,0.1-1.2v-8.5h6.6
			c1.2,0,2.1,0.3,2.8,1c0.7,0.7,1,1.7,1,3.1v8.4h-3.2v-8.6c0-1.1-0.5-1.6-1.5-1.6h-2.6v5.7c0,1.1-0.2,2-0.5,2.7
			c-0.3,0.7-0.9,1.2-1.6,1.5s-1.6,0.5-2.8,0.6L55.7,161.2z"/>
		<path class="st0" d="M70.6,153l-0.3-2.6h3.2l0.3,2.6v10h-3.2V153z"/>
		<path class="st0" d="M86.6,150.4c0,2.9-0.1,5.1-0.3,6.6c-0.2,1.5-0.8,2.7-1.7,3.8c-0.9,1-2.4,1.7-4.4,2.1l-4.7,0.9l-0.4-2.5
			l3.5-0.7L76,150.4h3.2l2.2,9.5c0.7-0.3,1.1-0.8,1.4-1.5c0.3-0.7,0.5-1.5,0.5-2.4c0.1-0.9,0.1-2.4,0.1-4.3v-1.4H86.6z"/>
		<path class="st0" d="M88.5,156.8l0.4-1.5h2.7v12h-3.2V156.8z M92.9,160.6c1-0.1,1.7-0.4,2.2-1c0.5-0.6,0.8-1.6,0.9-3l0.3-3.8h-7.6
			v-2.4h11l-0.1,2l-0.2,3.3c-0.2,4.8-2.3,7.2-6.2,7.2L92.9,160.6z"/>
		<path class="st0" d="M111.9,160.9c-1.8,1.5-4.5,2.3-8.2,2.3H103l-1.6-12.7h3l0.6,5.4c0.6-0.3,1-0.7,1.2-1.3
			c0.2-0.6,0.3-1.5,0.3-2.6v-1.4h3v1.4c0,1.6-0.4,2.9-1,3.9c-0.6,1-1.7,1.8-3.2,2.3l0.3,2.5c2.1-0.1,3.6-0.7,4.5-1.8
			c0.9-1.1,1.3-2.6,1.3-4.5l0-3.8h3.2l0,3.7C114.5,157.1,113.7,159.4,111.9,160.9z"/>
		<path class="st0" d="M116.4,157l0.4-1.5h2.7v7.5h-3.2V157z M123.7,154.4c0-1.1-0.5-1.6-1.5-1.6h-5.7v-2.4h6.6c1.2,0,2.1,0.3,2.8,1
			c0.7,0.7,1,1.7,1,3.1v8.4h-3.2V154.4z"/>
		<path class="st0" d="M132.7,161.2c0.6-0.1,1-0.2,1.3-0.3c0.3-0.2,0.5-0.4,0.6-0.7c0.1-0.3,0.1-0.7,0.1-1.2v-8.5h6.6
			c1.2,0,2.1,0.3,2.8,1c0.7,0.7,1,1.7,1,3.1v8.4h-3.2v-8.6c0-1.1-0.5-1.6-1.5-1.6h-2.6v5.7c0,1.1-0.2,2-0.5,2.7
			c-0.3,0.7-0.9,1.2-1.6,1.5c-0.7,0.3-1.6,0.5-2.8,0.6L132.7,161.2z"/>
		<path class="st0" d="M147.6,153l-0.3-2.6h3.2l0.3,2.6v3.4l0,1.4l-3.1,0.5V153z"/>
		<path class="st0" d="M163.2,160.6v2.4h-4.6h-5.8v-2.4h5.8v-6.2c0-1.1-0.5-1.6-1.5-1.6h-4.3v-2.4h5.2c1.2,0,2.1,0.3,2.8,1
			c0.7,0.7,1,1.7,1,3.1v6H163.2z"/>
	</g>
</g>
</svg>
