<?xml version="1.0" encoding="utf-8"?>
<!-- Generator: Adobe Illustrator 21.0.0, SVG Export Plug-In . SVG Version: 6.00 Build 0)  -->
<svg version="1.1" id="Layer_1" xmlns="http://www.w3.org/2000/svg" xmlns:xlink="http://www.w3.org/1999/xlink" x="0px" y="0px"
	 viewBox="0 0 355.7 356" style="enable-background:new 0 0 355.7 356;" xml:space="preserve">
<style type="text/css">
	.st0{fill:#124441;}
	.st1{fill:#013E7E;}
	.st2{fill:#FFFFFF;}
	.st3{fill:#01703E;}
</style>
<g>
	<path class="st0" d="M316.2,238.2l-20.7,0l7.6-7.5L316.2,238.2z M39.2,237.7l20.7,0l-7.5-7.6L39.2,237.7z"/>
	<polygon class="st1" points="355.7,178.1 178.2,0 0,177.3 52.3,229.7 303.1,230.2 	"/>
	<g>
		<path class="st2" d="M134.4,111.9l0-7l-40-0.1l0,7l3,0c3.3,0,6,2.7,6,6l-0.2,79c0,3.3-2.7,6-6,6l-3,0l0,7l40,0.1l0-7l-3,0
			c-3.3,0-6-2.7-6-6l0.2-79c0-3.3,2.7-6,6-6L134.4,111.9z"/>
		<path class="st2" d="M261.6,112.1l0-7l-40-0.1l0,7l3,0c3.3,0,6,2.7,6,6l-0.2,79c0,3.3-2.7,6-6,6l-3,0l0,7l40,0.1l0-7l-3,0
			c-3.3,0-6-2.7-6-6l0.2-79c0-3.3,2.7-6,6-6L261.6,112.1z"/>
		<path class="st2" d="M141.9,105.4l51.5,0.1c0,0,21.7,1.5,21.6,23.8c0,22.3-22.1,26.7-22.1,26.7s25.7,6,25.6,22.5
			s0.3,18.6-8.6,26.4c-6.6,5.7-17.3,5.7-17.3,5.7l-51-0.1l0-7l4,0c3.9,0,7-3.1,7-7l0.2-77c0-3.9-3.1-7-7-7l-4,0L141.9,105.4z
			 M193.6,136l0-6.7c0-9.4-7.6-17.1-17-17.1l-3.5,0l-0.1,40.8l3.5,0C185.9,153.1,193.6,145.5,193.6,136z M172.8,159.9l-0.1,35
			c0,0,0.3,8.2,7.9,8.2c7.6,0,15.1-4.4,15.2-13.6c0-9.2,0-13.6,0-13.6S195.9,160,172.8,159.9z"/>
	</g>
	<polygon class="st1" points="116.6,294.8 238.6,295.1 177.5,356 	"/>
	<polygon class="st3" points="316.2,238.2 39.2,237.7 87.6,286.8 267.7,287.1 	"/>
	<g>
		<path class="st2" d="M79.1,261l0.8-2.6h4.8v13.1h-5.6V261z M91.9,256.5c0-1.9-0.9-2.8-2.6-2.8h-10v-4.2h11.5c2,0,3.7,0.6,4.9,1.7
			c1.2,1.2,1.8,3,1.8,5.5v14.7h-5.6V256.5z"/>
		<path class="st2" d="M116.5,268.6c-3,2-7.3,3.1-13,3.3l-2.1-18.2l-0.5-4.2h11.8c2.5,0,4.5,0.7,5.8,2.1c1.4,1.4,2.1,3.4,2.2,5.9
			l0,1.3C120.8,263.3,119.4,266.6,116.5,268.6z M112.6,265.9c1-0.6,1.7-1.5,2.1-2.7c0.4-1.1,0.6-2.6,0.5-4.5v-1.2
			c0-1.2-0.3-2.1-0.8-2.8c-0.5-0.7-1.3-1-2.2-1h-5.3l1.4,13.3C110.1,266.9,111.5,266.5,112.6,265.9z"/>
		<path class="st2" d="M133.7,256.5c0-1.9-0.9-2.8-2.6-2.8h-7.5v-4.2h9c2,0,3.7,0.6,4.9,1.7c1.2,1.2,1.8,3,1.8,5.5v14.7h-5.6V256.5z
			"/>
		<path class="st2" d="M143.6,254.1l-0.5-4.5h5.5l0.5,4.5v17.5h-5.5V254.1z"/>
		<path class="st2" d="M171,267.4v4.2h-8.1h-10.1v-4.2h10.1v-10.8c0-1.9-0.9-2.8-2.6-2.8h-7.5v-4.2h9.1c2,0,3.7,0.6,4.8,1.7
			c1.2,1.2,1.8,3,1.8,5.5v10.6H171z"/>
		<path class="st2" d="M182.1,254.1l-0.5-4.5h5.5l0.5,4.5v6l0,2.4l-5.5,1V254.1z"/>
		<path class="st2" d="M189.8,268.4c1-0.1,1.7-0.3,2.2-0.6c0.5-0.3,0.8-0.7,1-1.2s0.3-1.2,0.2-2.1v-15h11.6c2,0,3.7,0.6,4.8,1.7
			c1.2,1.2,1.8,3,1.8,5.5v14.7h-5.5v-15c0-1.9-0.9-2.8-2.6-2.8h-4.5v10.1c0,1.9-0.3,3.5-0.9,4.7c-0.6,1.2-1.5,2-2.7,2.6
			s-2.9,1-4.9,1.1L189.8,268.4z"/>
		<path class="st2" d="M215.8,254.1l-0.5-4.5h5.5l0.5,4.5v17.5h-5.5V254.1z"/>
		<path class="st2" d="M234.6,256.5c0-1.9-0.9-2.8-2.6-2.8h-7.5v-4.2h9c2,0,3.7,0.6,4.9,1.7c1.2,1.2,1.8,3,1.8,5.5v14.7h-5.6V256.5z
			"/>
		<path class="st2" d="M244.5,254.1l-0.5-4.5h5.5l0.5,4.5v6l0,2.4l-5.5,1V254.1z"/>
		<path class="st2" d="M272.2,267.9c-3.1,2.7-7.9,4-14.4,4h-1.2l-2.9-22.3h5.3l1.1,9.5c1-0.5,1.7-1.3,2.1-2.3c0.4-1,0.5-2.6,0.5-4.6
			v-2.5h5.3v2.4c-0.1,2.8-0.6,5.1-1.7,6.9c-1.1,1.8-3,3.1-5.7,4l0.5,4.4c3.7-0.2,6.3-1.3,7.8-3.2c1.6-1.9,2.3-4.5,2.3-7.9l-0.1-6.7
			h5.6l0,6.4C276.8,261.2,275.3,265.2,272.2,267.9z"/>
	</g>
</g>
</svg>
