<?xml version="1.0" encoding="utf-8"?>
<!-- Generator: Adobe Illustrator 20.0.0, SVG Export Plug-In . SVG Version: 6.00 Build 0)  -->
<svg version="1.1" id="Layer_1" xmlns="http://www.w3.org/2000/svg" xmlns:xlink="http://www.w3.org/1999/xlink" x="0px" y="0px"
	 viewBox="0 0 518.8 437.8" style="enable-background:new 0 0 518.8 437.8;" xml:space="preserve">
<style type="text/css">
	.st0{fill:#B7DFE8;}
	.st1{fill:#FFFFFF;}
	.st2{fill:url(#SVGID_1_);}
	.st3{fill:#213361;}
	.st4{fill:#C4E5ED;}
	.st5{fill:url(#SVGID_2_);}
	.st6{fill:#9FD6E2;}
	.st7{fill:#415D97;}
	.st8{fill:#76428E;}
	.st9{opacity:0.57;fill:#415D97;}
	.st10{fill:url(#SVGID_3_);}
	.st11{fill:#E9F5F7;}
	.st12{fill:#2D2C5C;}
	.st13{fill:#8ACFDC;}
	.st14{opacity:0.56;fill:#8ACFDC;}
</style>
<path class="st0" d="M345.5,167.9c0-8.3,6.7-15,15-15c1.4,0,2.7,0.2,4,0.5c2.2-11.4,12.2-20,24.2-20c3.1,0,6.1,0.6,8.8,1.6
	c3.4-18.7,19.8-33,39.5-33c19.8,0,36.3,14.3,39.6,33.2c2.5-0.9,5.1-1.3,7.9-1.3c12.4,0,22.6,9.6,23.6,21.8
	c6.1,1.3,10.7,6.8,10.7,13.3c0,7.4-5.9,13.5-13.3,13.6v0H388.7c0,0,0,0,0,0c0,0,0,0,0,0h-27.2c-0.3,0-0.6,0-1,0c-0.3,0-0.7,0-1,0
	h-0.1v0C351.6,182.3,345.5,175.8,345.5,167.9z"/>
<g>
	<g>
		<circle class="st1" cx="42.4" cy="401.8" r="36"/>
		<circle class="st1" cx="226.5" cy="340.3" r="96.6"/>
		<circle class="st1" cx="340.5" cy="377.2" r="56.8"/>
		<circle class="st1" cx="110.2" cy="378.4" r="59.3"/>
		<rect x="39.8" y="389.7" class="st1" width="351.2" height="48"/>
		<circle class="st1" cx="390.2" cy="404.9" r="32.8"/>
	</g>
	
		<linearGradient id="SVGID_1_" gradientUnits="userSpaceOnUse" x1="4233.7681" y1="275.5835" x2="4233.7681" y2="250.4217" gradientTransform="matrix(-1 0 0 1 4439.7251 0)">
		<stop  offset="0" style="stop-color:#FFFFFF"/>
		<stop  offset="1" style="stop-color:#92D2E0"/>
	</linearGradient>
	<path class="st2" d="M179.2,256.1c1,0.1,7.4-3.8,8.9-3.9c28.5-3,43.3,0.8,52.4,9.7c3.6-8.4,5.8-7.9,5.8-7.9s28.2,22.8,22.8,37.2
		c-0.3,0.8-0.6,1.5-0.9,2.4H142C150.7,277.8,163.6,264.9,179.2,256.1z"/>
	<g>
		<path class="st3" d="M250.6,201.1c0,0-53-15.8-74.8-43c-14.6-18.3-12.1-59.3-12.1-59.3L250.6,201.1z"/>
		<path class="st4" d="M83,195.5c0,0-1.5,2.3-2.6,3.2c-2.2,1.8-10.6,9.1-10.6,9.1s-1.7-2.1,0.3-3.6c1.4-1.1,2.3-3.5,2.3-3.5
			L61.7,201c0,0-1.2,4.9-1.9,5.4c-0.8,0.5-1.8,0.6-1.8,0.3c0.5-2.5,1.6-8.9,1.6-8.9s0.5-1,1.7-1.2c0.3-1.2,1.2-2,1.9-2
			c1.2-0.1,14.2-2.4,14.2-2.4l5.5-0.2L83,195.5z"/>
		<path class="st3" d="M146.1,94.7c0,0-30.7,1.3-24.5,34c6.7,35.3,13.5,58.9,13.5,58.9l-55,2.6l2.3,9.7c0,0,30.3,4.3,51.2,5.7
			c21,1.4,27.5-16.4,27.5-16.4l10.5-60.3L146.1,94.7z"/>
		<path class="st3" d="M79.6,227.7l137-8.5c0,0,15.8,30.5-0.7,36.2c-18.7,6.5-70,6.3-98.5,5.7l77.4,77.7l-8.5,11L75.6,274.7
			L79.6,227.7z"/>
		<path class="st3" d="M194.1,338.8l6.2,0.3l-0.3,7.6l-3.1-0.1l2.8,10.8l-0.6,9.8c0,0-2,1.1-2.2-0.7c-0.1-0.5-2.2-10-2.2-10l-5-7.9
			L194.1,338.8z"/>
		
			<linearGradient id="SVGID_2_" gradientUnits="userSpaceOnUse" x1="4257.6426" y1="156.7262" x2="4173.9971" y2="168.6756" gradientTransform="matrix(-1 0 0 1 4439.7251 0)">
			<stop  offset="0" style="stop-color:#FFFFFF"/>
			<stop  offset="1" style="stop-color:#92D2E0"/>
		</linearGradient>
		<path class="st5" d="M185.6,220.1c0,0-5.9-19.1-47.7-51.3c-29.3-22.7-12.5-81.6-12.5-81.6l9.8,0l3.1,1.8c0,0,16.2,3.2,44.9,27.1
			c40.6,33.7,81,103,81,103L185.6,220.1z"/>
		<path class="st6" d="M200.1,215.4c0,0-7.2-20.4-22.2-27.2c-16.3-7.3-28.1-28.4-28.1-28.4s11.6,15.1,27.9,26.2
			c16.3,11.2,28.8,30.6,28.8,30.6L200.1,215.4z"/>
		<path class="st6" d="M135.1,87.1l3.2,1.8l-2.1,19.6c0,0-3.4,1-11.7-1.2C130.9,100.5,135.1,87.1,135.1,87.1z"/>
		<path class="st3" d="M138.3,89c0,0-7.8,71.8,63.4,94.5c14.7,4.7,43.7,78.9,43.7,78.9s28.2-22.8,22.8-37.2
			c-4.8-13-10.8-37.8-34.7-46.7C181.8,159.3,138.3,89,138.3,89z"/>
		<path class="st3" d="M257.9,199.7c0,0-43.9-79.1-70.8-96.7C168.5,90.9,138.3,89,138.3,89s11.8,66.7,58.3,83.1
			C243,188.5,257.9,199.7,257.9,199.7z"/>
		<path class="st7" d="M196.9,244.4c0,0,8.7,7.6-11,12c-16,3.6-49.5-2.4-84.4-7c4.5,25.7-2.8,39.7-2.8,39.7l-6-49.3L196.9,244.4z"/>
		<path class="st8" d="M123.8,108c0,0-0.5,1.3-0.3,3.9c0.8,2.8,2.5,4,2.5,4s-2.3,14.6,11.1,34.3c20.5,30.2,7.3,59.8,7.3,59.8
			l9.1,13.4l13.4-12.6c0,0,1-40.9-22.4-67.9c-16.2-18.7-15.4-27.8-15.4-27.8s2.4-2.4,3.4-5.2C127.6,109.6,123.8,108,123.8,108z"/>
		<path class="st9" d="M161.2,111.3c-1.3,5.6-6,10.3-6,10.3s3.3,5.3,11.9,8.9c0.9,6.9,10.3,29.6,19.6,38.5
			c-31.6-16.1-37.4-42.2-41.3-54.1c-3.9-11.9-4-24.6-4-24.6S150.4,107.6,161.2,111.3z"/>
		<g>
			
				<linearGradient id="SVGID_3_" gradientUnits="userSpaceOnUse" x1="4437.0249" y1="-1688.4656" x2="4412.168" y2="-1702.1367" gradientTransform="matrix(-0.8992 0.4377 0.4377 0.8992 4833.9009 -312.2668)">
				<stop  offset="0" style="stop-color:#56B9CE"/>
				<stop  offset="1" style="stop-color:#DAEFF3"/>
			</linearGradient>
			<path class="st10" d="M134.2,87.1l-6.6-6.9l-13.3-3.7c0,0-0.4,9.5,0.8,14.8c1.1,4.8-2,9.9-4,11.1c-4.2,2.5-11.6,6-11.6,6
				s19.1-3.4,22.6-1.4C125.9,107.6,134.2,87.1,134.2,87.1z"/>
			<path class="st11" d="M100.2,108.2c3.9-1.7,9.4-4.4,12.6-6.3c4.6-2.7,3.2-7.8,3.2-7.8l-1-9.3c0,0,1.4-1.7,2-4.2
				c0.2-1,0-4.5-4.3-4.2c-6.4,0.4-7.9-15.2-7.9-15.2l-8.4,1.4L92.3,69L89,92.6c0,0,0.4,1.1,1.8,0.7c1.4-0.5,3.4-0.8,3.4-0.8
				s4.1,14.2,4.3,14.9C98.7,108.1,98.8,108.9,100.2,108.2z"/>
			<path class="st12" d="M92.8,82.4c0.4,1.1,0.8,1.1,1.8,0.6c1.1-0.5,3-1.5,3.8-2.1c-0.1-0.3-2.3-0.2-5.7-0.3
				C91.6,80.5,92.3,81.3,92.8,82.4z"/>
			<path class="st3" d="M119.3,59c-23.2-2.4-30.1,0.1-29.8,6c0.1,1.1,1.1,3.3,2.7,3.9c5.9-3.3,10.8-5.7,10.9-1
				c0.3,1.4,0.5,18.1,5.7,16.3c0.2-2.3,1-8.1,5.6-7.8c2.7,0.2,2.7,6.2,13.5,3.7C124.9,71.9,122.1,61.4,119.3,59z"/>
		</g>
		<path class="st3" d="M83.8,375.8l0.1,8.9l-7.6,0.2l-0.1-3.1l-10.6,3.5l-9.8,0.1c0,0-1.2-1.9,0.6-2.3c0.5-0.1,9.9-2.8,9.9-2.8
			l8.9-6.5L83.8,375.8z"/>
		<path class="st3" d="M70.1,243.5L70.1,243.5L70.1,243.5c0.1-21.9,16.6-28.4,25.1-28.4c3.2,0,155.4,0.2,155.4,0.2
			s10.7,54.3-61.3,46.7c-22.9-2.4-37.8-10.4-91.9-16c11.6,30-10.4,127.8-10.4,127.8L71,374.6L70.1,243.5L70.1,243.5
			C70.1,243.5,70.1,243.5,70.1,243.5z"/>
		<path class="st4" d="M108.4,205.4c0,0-2,2.3-3.4,2.5c-1.3,0.2-4.3,0.3-7.6-0.9c-3.4-1.2-12.7-4.3-12.7-4.3s-3.9,2.4-4.8,2.7
			c-0.9,0.2-2-0.9-1.8-1.1c1.6-1,4.9-3.6,8.8-5.9c3.9-2.3,6.2-1.1,6.2-1.1s5.8,1.7,8.8,2.5c2.9,0.8,5.4,0.8,5.4,0.8L108.4,205.4z"/>
		<path class="st7" d="M107.1,200.3c0,0,6.1-4.8,22.1-10c16-5.2,23-6.7,23-6.7L107.1,200.3z"/>
		<path class="st3" d="M192.6,112.4c6.5,15.7,9.7,54.1,9.4,61.1s-2.2,21.8-19.2,24c-20,3-73.9,9.7-73.9,9.7l-2.2-7.2l68.8-24.5
			c0,0-4.2-21.2-12-48C156.1,102.2,183.6,90.7,192.6,112.4z"/>
		<path class="st3" d="M126.8,208.2v1c0,2.8-2,5.1-4.5,5.1H48.8c-2.5,0-4.5-2.3-4.5-5.1v-1H126.8z"/>
		<path class="st13" d="M96.8,207.6l-7.4-2.7c0,0-4.4,0.6-5.6,0.9c-1.2,0.2-0.9,1.5,0.1,1.8C85.2,207.6,96.8,207.6,96.8,207.6z"/>
		<g>
			<path class="st3" d="M44.2,207.9l-0.5,0.3c-2.4,1.4-5.4,0.8-6.6-1.4L0.5,143c-1.2-2.2-0.3-5,2.2-6.4l0.5-0.3L44.2,207.9z"/>
		</g>
	</g>
</g>
<path class="st14" d="M345.5,30.8c0-3.9-3.1-7-7-7c-0.6,0-1.3,0.1-1.9,0.3c-1-5.3-5.7-9.4-11.4-9.4c-1.5,0-2.9,0.3-4.1,0.8
	C319.5,6.7,311.8,0,302.6,0c-9.3,0-17,6.7-18.6,15.6c-1.2-0.4-2.4-0.6-3.7-0.6c-5.8,0-10.6,4.5-11.1,10.2c-2.9,0.6-5,3.2-5,6.3
	c0,3.5,2.8,6.3,6.2,6.4v0h54.8c0,0,0,0,0,0c0,0,0,0,0,0H338c0.2,0,0.3,0,0.5,0c0.2,0,0.3,0,0.5,0h0v0
	C342.6,37.6,345.5,34.6,345.5,30.8z"/>
</svg>
