<?xml version="1.0" encoding="utf-8"?>
<!-- Generator: Adobe Illustrator 20.0.0, SVG Export Plug-In . SVG Version: 6.00 Build 0)  -->
<svg version="1.1" id="Layer_1" xmlns="http://www.w3.org/2000/svg" xmlns:xlink="http://www.w3.org/1999/xlink" x="0px" y="0px"
	 viewBox="0 0 483.9 384.4" style="enable-background:new 0 0 483.9 384.4;" xml:space="preserve">
<style type="text/css">
	.st0{opacity:0.75;fill:url(#SVGID_1_);}
	.st1{opacity:0.75;fill:url(#SVGID_2_);}
	.st2{fill:url(#SVGID_3_);}
	.st3{fill:#447D9E;}
	.st4{fill:url(#SVGID_4_);}
	.st5{fill:url(#SVGID_5_);}
	.st6{fill:url(#SVGID_6_);}
	.st7{fill:#FFFFFF;}
	.st8{fill:#FCFCF7;}
	.st9{opacity:5.000000e-02;fill:#FFFFFF;}
	.st10{opacity:0.1;fill:#FFFFFF;}
	.st11{opacity:0.15;fill:#FFFFFF;}
	.st12{opacity:0.2;fill:#FFFFFF;}
	.st13{opacity:0.25;fill:#FFFFFF;}
	.st14{opacity:0.3;fill:#FFFFFF;}
	.st15{opacity:0.35;fill:#FFFFFF;}
	.st16{opacity:0.4;fill:#FFFFFF;}
	.st17{opacity:0.45;fill:#FFFFFF;}
	.st18{opacity:0.5;fill:#FFFFFF;}
	.st19{opacity:0.55;fill:#FFFFFF;}
	.st20{opacity:0.6;fill:#FFFFFF;}
	.st21{opacity:0.65;fill:#FFFFFF;}
	.st22{opacity:0.7;fill:#FFFFFF;}
	.st23{opacity:0.75;fill:#FFFFFF;}
	.st24{opacity:0.8;fill:#FFFFFF;}
	.st25{opacity:0.85;fill:#FFFFFF;}
	.st26{opacity:0.9;fill:#FFFFFF;}
	.st27{opacity:0.95;fill:#FFFFFF;}
	.st28{opacity:0.77;fill:url(#SVGID_7_);}
	.st29{fill:#213361;}
	.st30{fill:#415D97;}
	.st31{fill:#E9F5F7;}
	.st32{fill:#242F5D;}
	.st33{opacity:0.83;fill:#FFFFFF;}
	.st34{fill:#232B54;}
	.st35{fill:#9FD6E2;}
	.st36{fill:#76428E;}
	.st37{opacity:0.57;fill:#415D97;}
	.st38{fill:url(#SVGID_8_);}
	.st39{fill:#202F59;}
	.st40{opacity:0.77;}
	.st41{fill:url(#SVGID_9_);}
	.st42{fill:url(#SVGID_10_);}
	.st43{fill:url(#SVGID_11_);}
	.st44{fill:url(#SVGID_12_);}
	.st45{fill:url(#SVGID_13_);}
	.st46{fill:url(#SVGID_14_);}
</style>
<g>
	
		<linearGradient id="SVGID_1_" gradientUnits="userSpaceOnUse" x1="103.5292" y1="64.0139" x2="75.1029" y2="64.0139" gradientTransform="matrix(0.9995 3.300000e-02 -3.300000e-02 0.9995 -12.3296 6.6585)">
		<stop  offset="0" style="stop-color:#FFFFFF"/>
		<stop  offset="1" style="stop-color:#2199B3"/>
	</linearGradient>
	<path class="st0" d="M84.7,74.3c-2.3-0.2-18.3-1.7-21.4-2.1c-3.1-0.3-2.1,0.2,0.7,0.7c2.9,0.5,18.3,2,18.3,2S84,74.8,84.7,74.3z"/>
	<g>
		
			<linearGradient id="SVGID_2_" gradientUnits="userSpaceOnUse" x1="454.6843" y1="201.0336" x2="407.5808" y2="201.0336" gradientTransform="matrix(0.9985 -5.470000e-02 5.470000e-02 0.9985 -16.0891 10.9626)">
			<stop  offset="0" style="stop-color:#FFFFFF"/>
			<stop  offset="1" style="stop-color:#2199B3"/>
		</linearGradient>
		<path class="st1" d="M441.8,187.3c-4.1,0-30,0.2-35.5,0.1c-5.4-0.1-3.7,0.6,1.3,1.1c5,0.5,32.1,0.6,32.1,0.6
			S440.7,188.3,441.8,187.3z"/>
		
			<linearGradient id="SVGID_3_" gradientUnits="userSpaceOnUse" x1="323.8823" y1="249.7876" x2="406.5698" y2="297.7997" gradientTransform="matrix(0.9985 -5.470000e-02 5.470000e-02 0.9985 -16.0891 10.9626)">
			<stop  offset="0" style="stop-color:#56B9CE"/>
			<stop  offset="0.5583" style="stop-color:#A1D7E2"/>
			<stop  offset="1" style="stop-color:#DAEFF3"/>
		</linearGradient>
		<path class="st2" d="M396.3,260c-21.4,0.6-31.3-40.1-49.6-40l-93.9-2l26.9,41l116.6,1.4L396.3,260z"/>
		<path class="st3" d="M321.5,221.4c0,0,13.5,0.8,20.5,8.4c7,7.7,18,28.4,26.3,30.2l11,0.1c-8.4-1.8-19.6-22.8-26.5-30.5
			c-9.4-10.6-20.5-8.4-20.5-8.4L321.5,221.4z"/>
		
			<linearGradient id="SVGID_4_" gradientUnits="userSpaceOnUse" x1="107.7009" y1="418.394" x2="152.0387" y2="306.9164" gradientTransform="matrix(0.9985 -5.470000e-02 5.470000e-02 0.9985 -16.0891 10.963)">
			<stop  offset="0" style="stop-color:#56B9CE"/>
			<stop  offset="1" style="stop-color:#FFFFFF"/>
		</linearGradient>
		<path class="st4" d="M226.9,214.7c0,0-5.9-0.2-21.8,4.8c-46.6,14.7-44.8,62-90.7,79.6c-41.8,16-96.8-18.2-112.1-28.6
			c-2.6-1.8-3.1-1.4-1.3,1.3c9.5,13.9,40.7,58.2,62,73.1c25.4,17.7,58.3-0.9,58.3-0.9s47.5,58.7,100.5,32.5
			c72.2-35.6,49.2-122,103.5-151.8c8.7-4.8,16.2-4.8,22.8-4.6L226.9,214.7z"/>
		
			<linearGradient id="SVGID_5_" gradientUnits="userSpaceOnUse" x1="123.8839" y1="358.7569" x2="139.017" y2="331.1613" gradientTransform="matrix(0.9985 -5.470000e-02 5.470000e-02 0.9985 -16.0891 10.9626)">
			<stop  offset="0" style="stop-color:#56B9CE"/>
			<stop  offset="0.5583" style="stop-color:#A1D7E2"/>
			<stop  offset="1" style="stop-color:#DAEFF3"/>
		</linearGradient>
		<path class="st5" d="M74.7,354c22.7,6.8,46.2-6.3,46.2-6.3s22.1,27.3,52.5,36.5l0.1,0.2l-98.8-30.3L74.7,354z"/>
		
			<linearGradient id="SVGID_6_" gradientUnits="userSpaceOnUse" x1="394.3472" y1="288.5859" x2="387.5786" y2="242.9715" gradientTransform="matrix(0.9985 -5.470000e-02 5.470000e-02 0.9985 -16.0891 10.9626)">
			<stop  offset="0" style="stop-color:#56B9CE"/>
			<stop  offset="0.5583" style="stop-color:#A1D7E2"/>
			<stop  offset="1" style="stop-color:#FFFFFF"/>
		</linearGradient>
		<path class="st6" d="M345.6,217.1c24.1-0.3,31.2,48.6,57.1,38.9c24.1-9,39-68.5,39-68.5s-19.9,21.5-48.2,21.7
			c-25.3,0.2-46.9-2-65.5-3.8c-8.5,9.7-13.8,11.1-13.8,11.1L345.6,217.1z"/>
		<path class="st3" d="M28.3,297.3c13.4,18.9,27.4,33.3,40.1,42.7c12.7,9.4,21.1,11.7,21.1,11.7s5.7,0.3,13.3-1.6
			c-9-3-14.7-4.8-28.6-14.3c13.4,1.9-0.8-11-8.3-16.9c18.8,4.4,51.6,5,73.3-9.5c36.5-24.4,34-50.8,67-76.5
			c21-16.3,45.4-16.6,45.4-16.6l-11.1-0.4c0,0-30.4-2.3-53.6,22.1c-24.9,26.3-32.4,50.7-55.6,63.9C106,316.3,65.4,315,28.3,297.3z"
			/>
		<path class="st3" d="M146.4,365.5c9.7,7.1,19.1,10.8,19.1,10.8s47.1,7.9,73.9-24.9c34.2-41.7,28.5-71.9,51.5-105
			c18.6-26.8,35.7-26.8,35.7-26.8l-10.4-0.4c0,0-21.8-0.8-44,37.7c-17.1,29.6-15.6,58.6-45.2,89.6
			C210.1,364,182.8,376.3,146.4,365.5z"/>
		<path class="st3" d="M256.5,216.3c-2.4-0.1-15.8,1.9-30.9,10.6c-15.1,8.7-19.2,26.9,3.6,28.9c22.8,2,43.6-10.3,56.6-23
			c12.3-12.1,5.4-14.7,4.8-15C277.3,217.5,259.1,216.4,256.5,216.3z"/>
		<path class="st7" d="M276,217c-2.9,0.3-6.4,1.1-9,2.4c-3.1,1.5-9.8,5.8-13.7,8.9c-1.7,1.3-3,2.4-3.9,3.2c-2.6,2.1-4.9,3.8-7.2,5.1
			c-2.2,1.3-4.1,1.9-5.5,1.9c-1.5,0-1.8-0.8-1-2.2c0.8-1.4,2.6-3.3,5.4-5.6c3.7-3.1,6.8-5.2,9.3-6.3c1.2-0.6,2.9-1.3,3.9-1.6
			c1.1-0.3,7.5-2.4,12.2-6.2c-2.7-0.1-2.7-0.2-5.6-0.2c-3.7,0.5-8.5,1.8-12.3,3.3c-3.6,1.4-7,3.5-9.8,5.6c-0.2,0.2-0.4,0.3-0.7,0.5
			l-3.4-0.1c-2-0.1-5.7,1.5-8.2,3.6l-1.1,0.9c-2.5,2.1-2.8,3.8-0.8,3.8l3.3,0.1c-1,1-1.8,2-2.7,2.9c-2,2.3-3.1,3.8-4,5.5
			c-0.9,1.7-1.1,3-0.5,4.1c0.5,1.1,2,1.9,4.4,2c2.1,0.1,4.5-0.4,7.3-1.3c2.8-0.9,5.6-2.2,8.6-3.8c3-1.6,5.3-3.5,8.3-5.5
			c2.9-2,5.6-4.1,8-6.2c6.1-5.3,10.8-8.2,12.9-9.1c1.3-0.6,2.1-1,3.8-1.3c1.5-0.3,2.6-0.2,3-0.1c0.3,0.2,0.5,0.5,0,1.2
			c-1.4,2-7.2,6.9-10.5,9.5c-2.6,2.1-5.1,4.1-7,5.4c-3.9,2.6-7.7,3.6-8.6,3.8c-0.9,0.1-2.8,2.1-7.9,6.4c-5.1,4.2-3.2,4.2-2.2,4.2
			c1.7-0.2,3.5-0.5,5.3-1c2.9-0.8,5.5-1.9,8.2-3.4c6-3.3,10.4-7.2,13.2-9.3c1.1-0.8,1.9-1.5,2.8-2.2l5.5,0c2,0.1,5.7-1.5,8.2-3.6
			l1.1-0.9c2.5-2,2.8-3.8,0.8-3.8l-5-0.1c0.7-0.6,1.7-1.5,2.4-2.1c2.6-2.4,3.5-3.2,4.2-4c1.3-1.6,2.2-3.6-1-3.7
			C284.9,217.4,280.6,217.2,276,217z"/>
		<path class="st3" d="M324.9,216.6c0,0,3.6-2.6,5.2-4.5c14.5,1.5,35.4,3.9,63.4,4c23.9,0.1,35.3-9.8,35.3-9.8s-12.8,28.4-21.9,38.8
			c-9.1,10.3-16.4,10.4-16.4,10.4s-2.9-1.2-5-2.7c4.8-1.1,10.5-3.8,17.3-11.5c1.5-1.7,3.6-4.3,4.9-6.5c-9.5,1.5-6.5-8.8-4-11.1
			c-8.2,0.9-27.4,1-43.8-0.7c-4.5-3.7-8.5-6-14.4-6C339.3,217,324.9,216.6,324.9,216.6z"/>
	</g>
	<path class="st8" d="M148.9,28.6c-0.6-4.4-4.4-7.8-9-7.8c-2.6,0-4.9,1.1-6.6,2.8c-1.8-4.4-6.1-7.4-11.1-7.4c-1.8,0-3.5,0.4-5,1.1
		c-2.6-5.8-8.3-9.8-15.1-9.8c-8.7,0-15.8,6.7-16.4,15.2c-2.1-1.9-4.9-3.1-8-3.1c-5.6,0-10.3,3.8-11.6,9H148.9z"/>
	<path class="st8" d="M457.2,123.6c-0.8-6.3-6.2-11.1-12.7-11.1c-2,0-4,0.5-5.7,1.3c-3-4-7.8-6.5-13.1-6.5
		c-7.3,0-13.4,4.7-15.6,11.2c-1.8-1-3.8-1.6-6-1.6c-4.8,0-8.9,2.8-10.8,6.8H457.2z"/>
	<g>
		
			<rect x="276.9" y="310.2" transform="matrix(6.356447e-03 -1 1 6.356447e-03 -35.085 588.8097)" class="st9" width="3.7" height="3.7"/>
		
			<rect x="286.1" y="310.3" transform="matrix(6.353828e-03 -1 1 6.353828e-03 -26.052 597.999)" class="st10" width="3.7" height="3.7"/>
		
			<rect x="295.2" y="310.3" transform="matrix(5.508016e-03 -1 1 5.508016e-03 -16.769 607.4526)" class="st11" width="3.7" height="3.7"/>
		
			<rect x="304.3" y="310.4" transform="matrix(5.504241e-03 -1 1 5.504241e-03 -7.7281 616.6449)" class="st12" width="3.7" height="3.7"/>
		
			<rect x="313.5" y="310.4" transform="matrix(5.076507e-03 -1 1 5.076507e-03 1.4431 625.9667)" class="st13" width="3.7" height="3.7"/>
		
			<rect x="322.6" y="310.5" transform="matrix(5.503351e-03 -1 1 5.503351e-03 10.3492 635.0229)" class="st14" width="3.7" height="3.7"/>
		
			<rect x="331.8" y="310.5" transform="matrix(5.488701e-03 -1 1 5.488701e-03 19.3937 644.2156)" class="st15" width="3.7" height="3.7"/>
		
			<rect x="340.9" y="310.6" transform="matrix(5.917569e-03 -1 1 5.917569e-03 28.2882 653.2689)" class="st16" width="3.7" height="3.7"/>
		
			<rect x="350" y="310.6" transform="matrix(5.292642e-03 -1 1 5.292642e-03 37.5436 662.6566)" class="st17" width="3.7" height="3.7"/>
		
			<rect x="359.2" y="310.7" transform="matrix(5.481817e-03 -1 1 5.481817e-03 46.5166 671.7844)" class="st18" width="3.7" height="3.7"/>
		
			<rect x="368.3" y="310.7" transform="matrix(5.723984e-03 -1 1 5.723984e-03 55.4658 680.8992)" class="st19" width="3.7" height="3.7"/>
		
			<rect x="377.4" y="310.8" transform="matrix(5.072226e-03 -1 1 5.072226e-03 64.751 690.2909)" class="st20" width="3.7" height="3.7"/>
		
			<rect x="386.6" y="310.8" transform="matrix(5.507334e-03 -1 1 5.507334e-03 73.6263 699.3445)" class="st21" width="3.7" height="3.7"/>
		
			<rect x="395.7" y="310.9" transform="matrix(6.353828e-03 -1 1 6.353828e-03 82.3301 708.266)" class="st22" width="3.7" height="3.7"/>
		
			<rect x="404.9" y="310.9" transform="matrix(5.723983e-03 -1 1 5.723983e-03 91.6173 717.6538)" class="st23" width="3.7" height="3.7"/>
		
			<rect x="414" y="311" transform="matrix(5.505736e-03 -1 1 5.505736e-03 100.7454 726.9113)" class="st24" width="3.7" height="3.7"/>
		
			<rect x="423.1" y="311" transform="matrix(4.656451e-03 -1 1 4.656451e-03 110.1438 736.3694)" class="st25" width="3.7" height="3.7"/>
		
			<rect x="432.3" y="311.1" transform="matrix(4.640724e-03 -1 1 4.640724e-03 119.1968 745.5607)" class="st26" width="3.7" height="3.7"/>
		
			<rect x="441.4" y="311.1" transform="matrix(6.348460e-03 -1 1 6.348460e-03 127.4912 754.2125)" class="st27" width="3.7" height="3.7"/>
		
			<rect x="450.6" y="311.2" transform="matrix(5.072320e-03 -1 1 5.072320e-03 137.0958 763.804)" class="st7" width="3.7" height="3.7"/>
		
			<rect x="459.7" y="311.2" transform="matrix(5.508142e-03 -1 1 5.508142e-03 145.9395 772.8558)" class="st7" width="3.7" height="3.7"/>
		
			<rect x="468.8" y="311.3" transform="matrix(4.877251e-03 -1 1 4.877251e-03 155.2766 782.2438)" class="st7" width="3.7" height="3.7"/>
		<polygon class="st7" points="483.9,313.1 477.4,317.7 477.4,308.5 		"/>
	</g>
	<linearGradient id="SVGID_7_" gradientUnits="userSpaceOnUse" x1="229.1315" y1="214.0883" x2="140.0711" y2="214.0883">
		<stop  offset="0" style="stop-color:#FFFFFF"/>
		<stop  offset="1" style="stop-color:#2199B3"/>
	</linearGradient>
	<path class="st28" d="M215.6,214.7c-7.8-0.3-57.2-2-67.6-2.6c-10.4-0.6-5.2,0.1,4.3,1.2c9.5,1.1,53.7,3,53.7,3
		S209.5,215.4,215.6,214.7z"/>
	<g>
		<polygon class="st7" points="102.8,252.5 111.5,243.8 102.8,235.1 102.8,240.8 102.8,246.8 		"/>
		<circle class="st7" cx="97.1" cy="243.9" r="3.2"/>
		<circle class="st7" cx="88" cy="243.9" r="3.2"/>
		<circle class="st7" cx="78.8" cy="243.9" r="3.2"/>
	</g>
	<g>
		<g>
			<g>
				<g>
					<g>
						<g>
							<path class="st29" d="M350.6,11.2l-21.3,0.1c0,0-0.6-0.4-0.6-1.5c0-1.1,0.6-1.4,0.6-1.4l21.3-0.1L350.6,11.2z"/>
							<path class="st30" d="M372.6,12l-23.1,0.1c0,0-0.5-0.7-0.5-2.4c0-1.7,0.5-2.5,0.5-2.5l23.1-0.1L372.6,12z"/>
							<path class="st29" d="M398.5,13.2l-26.7,0.2c0,0-0.7-0.8-0.7-3.7c0-2.8,0.7-3.9,0.7-3.9l26.7-0.2L398.5,13.2z"/>
						</g>
						<path class="st31" d="M357.4,17.9l0-2.3c0,0-0.6-1-1-2.1c-0.3-1.1-0.3-3-0.3-3s0-0.6,0-2c0-1.4-0.8-2.4-0.8-2.4
							s1.1-0.4,1.7,0.5c0.6,0.9,0.7,2.8,1.3,3.3c0.9,0.7,1.3,2.3,1.3,2.3l2.7,0c0,0-0.1,1.5-0.3,2.2c-0.2,0.7-0.9,1.3-0.9,1.3v2.3
							L357.4,17.9z"/>
						<path class="st31" d="M362.1,7.2c0,0-0.3-1-0.6-1.4c-0.5-0.6-1-0.1-1-0.1s-0.1-0.3-0.6-0.4c-0.3,0-0.7,0.4-0.7,0.4
							s-0.2-0.3-0.4-0.3c-0.4,0-0.8,0.5-0.8,0.7c-0.1,0.2,0,1.4-0.1,2.5c0.2,0.1,0.8,0,0.9-0.3c0.1,0.1,0,0.4,0.4,0.3
							c0.4-0.1,0.6-0.3,0.6-0.3s0,0.4,0.4,0.3c0.4,0,1.3-1.4,1.3-1.4L362.1,7.2z"/>
					</g>
					<g>
						<path class="st29" d="M400,3.4c-0.6,0-2.3,0-2.8,0c-1.1,0-1.9,2.7-1.9,6c0,3.3,0.9,6,2,6c0.6,0,2.3,0,2.8,0
							c1.1,0,1.9-2.7,1.9-6C401.9,6.1,401.1,3.4,400,3.4z"/>
						
							<ellipse transform="matrix(1 -5.771013e-03 5.771013e-03 1 -4.778754e-02 2.3082)" class="st7" cx="399.9" cy="9.4" rx="1.3" ry="5"/>
					</g>
				</g>
				<path class="st29" d="M318.9,27.2c0,0,8.9,5.5,14.9,11.7c5.5,5.7,20.5,14.9,20.5,14.9l2-36.1l5.3-0.1c0,0,0.8,28,0.9,37.3
					c0.1,9.3-7,11-10.7,9.8c-3.7-1.2-16.7-6.7-23.5-9.7C324,53.1,318.9,27.2,318.9,27.2z"/>
			</g>
			<g>
				<g>
					
						<rect x="206.4" y="87.6" transform="matrix(0.9676 -0.2527 0.2527 0.9676 -20.0136 59.3569)" class="st32" width="29.5" height="40"/>
					<path class="st32" d="M231.6,108.4l-1.5-5.9c-0.5-1.8,0.6-3.6,2.4-4l3.2-0.8c1.8-0.5,3.6,0.6,4,2.4l1.5,5.9
						c0.5,1.8-0.6,3.6-2.4,4l-3.2,0.8C233.9,111.2,232,110.2,231.6,108.4z M238.2,100.4c-0.3-1-1.2-1.5-2.2-1.3l-3.2,0.8
						c-1,0.3-1.5,1.2-1.3,2.2l1.5,5.9c0.3,1,1.2,1.5,2.2,1.3l3.2-0.8c1-0.3,1.5-1.2,1.3-2.2L238.2,100.4z"/>
					<path class="st31" d="M243.5,97.4c0,0,0.5,1.9,0.6,2.6c0.2,1.1-1.9,4.6-2.1,7.6c0,0.3-1-0.4-0.8-1.2c0.2-1.1,0-2.4,0-2.4
						l-1.8,1.3l0.2,0.8c0,0-0.4,0.1-1.2,0.2c-0.6,0.1-0.9-0.3-0.9-0.6c0-0.2,0-0.4-0.3-0.6c-0.4-0.3-0.5-0.7-0.5-1
						c0-0.2-0.1-0.5-0.3-0.7c-0.3-0.5-0.1-0.8-0.1-0.8s1-1.2,1.9-2c1.2-1,3.2-2.2,3.2-2.2l0.9-1.3L243.5,97.4z"/>
					<polygon class="st30" points="219.1,107.8 216,88.2 217.2,88 220.3,107.5 227.3,126.7 226.1,127 					"/>
					<path class="st33" d="M221.2,110.1l-1.7,0.5c-1.3,0.3-2.6-0.5-3-1.8l0,0c-0.3-1.3,0.4-2.7,1.8-3.1l1.7-0.5L221.2,110.1z"/>
				</g>
				<path class="st30" d="M255,116.1c0,0,5.6-5.9,26.2-6.8c19.5-0.9,26-43.3,26-43.3s-36.8,26.5-48.1,40.1
					C256.1,109.8,255,116.1,255,116.1z"/>
				<path class="st34" d="M266.8,215.2l-0.2,3.6l3.1,0.1l0.1-1.3l4.3,1.4l4,0c0,0,0.5-0.8-0.2-0.9c-0.2,0-4-1.1-4-1.1l-3.4-2.3
					L266.8,215.2z"/>
				<path class="st34" d="M299.9,215.2l-0.2,3.6l3.1,0.1l0.1-1.3l4.3,1.4l4,0c0,0,0.5-0.8-0.2-0.9c-0.2,0-4-1.1-4-1.1l-3.6-2.3
					L299.9,215.2z"/>
				<path class="st29" d="M313.7,97.1c0,0,16.2-18.5,17.3-42.1c0.9-18.1-14.2-29.8-14.2-29.8L313.7,97.1z"/>
				<path class="st7" d="M318.4,104.5c0,0,2.6-18.9,6.8-41.7c3.5-18.7-8.1-40-8.1-40l-9.8,1.4c0,0-18.2,14.5-22.8,32.3
					c-2.8,10.9-3.9,23.8-3.9,23.8l-0.3,23.5L318.4,104.5z"/>
				<path class="st35" d="M310.8,106.1c0,0-1.3-11.7,3.3-18.4c4.9-7.3,5.4-22.3,5.4-22.3s-1.9,12.4-5.9,21.3
					c-3.9,8.9-4.2,19.2-4.2,19.2L310.8,106.1z"/>
				<path class="st35" d="M307.3,24.2l-1,0.7l6.7,8.7c0,0,3.7-1.3,5.4-4.7C311.5,28.5,307.3,24.2,307.3,24.2z"/>
				<path class="st29" d="M306.3,24.8c0,0,20.9,32.3-5.2,52.7c-42.1,32.9-48.9,44.4-48.9,44.4s-3.5-19.2,12.5-30.9
					C306.4,60.3,306.3,24.8,306.3,24.8z"/>
				<path class="st29" d="M279.6,82.2c1.3-13.7-3.6-30.3-0.6-45.5c1.1-1.6,2.5-2.8,4.1-3.4c14.2-5.3,23.2-8.5,23.2-8.5
					s10.2,17.1-3.4,37.2C289.3,82.2,283.3,80.7,279.6,82.2z"/>
				<path class="st35" d="M315.5,75.9c0,0-4,9.1-7.3,15.2c-3.3,6.1-5.8,8.8-5.8,8.8s-5.2-0.3-7.4,0.1c-2.2,0.5-4.5,1.4-4.5,1.4
					s1.7-7.7,2.9-9.9c1.2-2.2,3.5-3.9,3.5-3.9l6.1-5.3L315.5,75.9z"/>
				<path class="st36" d="M318.9,29c0,0,1,0.7,1.7,3.1c0.1,1.4-0.8,2.5-0.8,2.5s4.2,8.8,3.5,20.7c-1.2,18.3-20.7,39.6-20.7,39.6
					l-9.5,1.3l1.5-10c0,0,20.4-14.5,23.6-32.2C320.5,41.9,318,35,318,35s-0.7-0.4-2.4-2.1C317.9,31.5,318.9,29,318.9,29z"/>
				<path class="st37" d="M304.2,29c0,0,5.4,8,2.2,12.4c2.2,1.6,4.2,2.8,4.2,2.8s-1.1,1.7-3.8,4.2c1.7,3.5,2.4,13.7-0.3,21.3
					c9.2-12.4,6-26,4.2-31.8c-1.8-5.8-4.9-11.5-4.9-11.5L304.2,29z"/>
				<g>
					
						<linearGradient id="SVGID_8_" gradientUnits="userSpaceOnUse" x1="-286.9966" y1="494.8445" x2="-299.8869" y2="487.7548" gradientTransform="matrix(1 4.100000e-03 -4.100000e-03 1 614.0344 -467.2501)">
						<stop  offset="0" style="stop-color:#56B9CE"/>
						<stop  offset="0.5583" style="stop-color:#A1D7E2"/>
						<stop  offset="1" style="stop-color:#DAEFF3"/>
					</linearGradient>
					<path class="st38" d="M307.3,24.1c0,0,1.5-2.6,1.1-7.5c-0.3-4.9,5.1-4.4,5.1-4.4s2.2,4.1,2.8,6.7c0.5,2.4,3,3.9,4.1,4
						c2.4,0.2,6.8,0.1,6.8,0.1s-7,1.6-8.8,5.3C312.9,28.8,307.3,24.1,307.3,24.1z"/>
					<path class="st31" d="M326.9,23.1c-2.1,0.1-5.4,0.1-7.2-0.1c-2.6-0.2-3.1-2.8-3.1-2.8l-1.5-4.3c0,0-1-0.5-1.8-1.4
						c-0.3-0.4-1-2.4,0.9-3.2c2.9-1.2,0.3-8,0.3-8l4-1.2l3.6,1.8l6.5,9.7c0,0,0.1,0.5-0.7,0.7c-0.9,0.2-1.7,0.4-1.7,0.4
						s1.1,7.1,1.1,7.5C327.5,22.7,327.6,23.1,326.9,23.1z"/>
					<path class="st39" d="M324.3,10.1c0,0.6-0.1,0.6-0.7,0.6c-0.6,0-2.2,0-2.1-0.1c0.1-0.1,1-0.6,2.4-1.3
						C324.4,9,324.3,9.5,324.3,10.1z"/>
					<path class="st29" d="M308.4,5.1c9.8-6,13-6.1,14.1-3.5c0.2,0.5,0.2,1.7-0.4,2.3c-3.3-0.2-6.4-0.1-5.5,2c0.2,0.7,3.6,8.1,1,8.4
						c-0.6-1-2.3-3.6-4.3-2.5c-1.1,0.7,0.4,4.2-4.9,5.4C308,12.9,307.7,6.8,308.4,5.1z"/>
				</g>
				<path class="st29" d="M305.3,215.2c0,0-3.1,1.1-7.6,1.1c-0.6-21.8-6.1-38.5-0.2-55.8c-0.9-27.7-8.5-56.5-8.5-56.5l29.3,0.4
					L305.3,215.2z"/>
				<path class="st30" d="M295.6,137.7l0.6,6c0,0,4.4-11.5,4.4-18.6C300.7,115.2,295.6,137.7,295.6,137.7z"/>
				<path class="st30" d="M284.5,50.4c0,0,6.5-2.8,1.6,3.8c-3.2,4.4-7.2,9.2-7.2,9.2l-0.4-4.1L284.5,50.4z"/>
				<polygon class="st29" points="241.5,97.6 244.5,99.9 288.4,50.6 278.7,37.3 				"/>
				<path class="st29" d="M307.3,104.2L273,215.9c0,0-5-0.2-6.8-0.4c1.2-20.5,2.4-45.8,8.9-55.6c3.2-30.8,2.5-39.9,5.2-56.2
					C294.2,104.4,307.3,104.2,307.3,104.2z"/>
			</g>
		</g>
		<g class="st40">
			<linearGradient id="SVGID_9_" gradientUnits="userSpaceOnUse" x1="255.5477" y1="235.934" x2="255.5477" y2="212.7307">
				<stop  offset="0" style="stop-color:#FFFFFF"/>
				<stop  offset="1" style="stop-color:#1F8293"/>
			</linearGradient>
			<path class="st41" d="M233.1,242.8c0,0,6.4,0.4,16,0c8.8-15.2,21.3-22.4,21.3-22.4s-0.4,0-1,0l2.6-0.5c0,0,4.8-0.4,5.1-0.4
				c0.8-0.1,0.9-0.4,0.9-0.4l-4.2-0.1l-5.3,0.7l1.2-0.7l-3-0.1l-2.7,1.7c-0.3,0-0.5,0-0.7,0C253.7,224.1,241.2,231.3,233.1,242.8z"
				/>
			<linearGradient id="SVGID_10_" gradientUnits="userSpaceOnUse" x1="285.4735" y1="235.9341" x2="285.4735" y2="212.7306">
				<stop  offset="0" style="stop-color:#FFFFFF"/>
				<stop  offset="1" style="stop-color:#1F8293"/>
			</linearGradient>
			<path class="st42" d="M274.9,248.6c11.7-18,27.5-27.8,27.5-27.8s-0.2-0.1-0.7-0.1l3.6-0.7c0,0,4.6-0.5,4.9-0.5
				c0.8-0.1,0.9-0.4,0.9-0.4l-4,0l-5.3,0.7l1-0.8l-3,0l-2.2,1.5c-0.6,0-1.1,0-1.8,0c-12.5,5.3-22.8,10.3-35.9,26.7
				C259.8,247.1,264.8,249.2,274.9,248.6z"/>
		</g>
	</g>
	<g>
		
			<linearGradient id="SVGID_11_" gradientUnits="userSpaceOnUse" x1="130.2969" y1="78.9756" x2="161.4829" y2="97.0836" gradientTransform="matrix(0.9998 2.060000e-02 -2.060000e-02 0.9998 -10.8088 7.831)">
			<stop  offset="0" style="stop-color:#56B9CE"/>
			<stop  offset="0.5583" style="stop-color:#A1D7E2"/>
			<stop  offset="1" style="stop-color:#DAEFF3"/>
		</linearGradient>
		<path class="st43" d="M144.5,100.1c-7.8-0.4-9.6-20.2-16.2-20.7l-34.1-3.3l8.7,15.7l-0.6,5.1L144.5,100.1z"/>
		<path class="st3" d="M119.1,79.2c0,0,4.9,0.6,7.2,3.6c2.3,3,5,15.6,8,16.4l4.1,0.3c-3-0.9-5.8-13.5-8.1-16.6
			c-3.1-4.1-7.2-3.6-7.2-3.6L119.1,79.2z"/>
		
			<linearGradient id="SVGID_12_" gradientUnits="userSpaceOnUse" x1="55.1676" y1="139.6871" x2="71.404" y2="98.8644" gradientTransform="matrix(0.9998 2.060000e-02 -2.060000e-02 0.9998 -10.8088 7.8315)">
			<stop  offset="0" style="stop-color:#56B9CE"/>
			<stop  offset="1" style="stop-color:#FFFFFF"/>
		</linearGradient>
		<path class="st44" d="M85.6,74.3c0,0-2.8-0.4-8.7,1C59.5,79.4,58.5,97,41.4,102.2C23,107.6,4.6,98,4.6,98s8.4,11.9,17.1,19
			c8.7,7.1,20.2,5.5,20.2,5.5s16.7,18.4,36.7,10.3c27.2-11,21.2-43,41.8-52.3c3.3-1.5,6-1.3,8.4-1.1L85.6,74.3z"/>
		
			<linearGradient id="SVGID_13_" gradientUnits="userSpaceOnUse" x1="53.1154" y1="116.3824" x2="56.238" y2="110.6882" gradientTransform="matrix(0.9998 2.060000e-02 -2.060000e-02 0.9998 -10.8088 7.831)">
			<stop  offset="0" style="stop-color:#56B9CE"/>
			<stop  offset="0.5583" style="stop-color:#A1D7E2"/>
			<stop  offset="1" style="stop-color:#DAEFF3"/>
		</linearGradient>
		<path class="st45" d="M25.7,120.7c10.3,4.3,15.6,2.9,15.6,2.9s4.2,4.8,11.8,7.9l0,0.1L25.7,120.7L25.7,120.7z"/>
		
			<linearGradient id="SVGID_14_" gradientUnits="userSpaceOnUse" x1="163.1466" y1="93.1516" x2="161.233" y2="80.2552" gradientTransform="matrix(0.9998 2.060000e-02 -2.060000e-02 0.9998 -10.8088 7.831)">
			<stop  offset="0" style="stop-color:#56B9CE"/>
			<stop  offset="0.5583" style="stop-color:#A1D7E2"/>
			<stop  offset="1" style="stop-color:#FFFFFF"/>
		</linearGradient>
		<path class="st46" d="M133.3,82.6c4,6.3,6.1,18.9,13.7,16.7c9-2.6,14.7-18.8,14.7-18.8S147.5,82.8,133.3,82.6z"/>
		<path class="st3" d="M14.7,105.6c3.2,3.3,4.8,5.9,9.1,9.8c6.3,5.8,9.1,6.7,9.1,6.7s2.2,0.5,5.3,0.6c-3.2-1.3-7.5-4.7-11.7-8.7
			c4.8,1.1,4.5-1,1.9-3.4c5.5,0.3,13.7,0.4,22-4.3c13.9-7.9,13.8-17.5,26.5-26c8.1-5.4,17-4.8,17-4.8l-4-0.5c0,0-11-1.7-20.1,6.6
			c-9.8,8.9-13.2,17.5-22,21.7C38.1,107.8,25.2,108.9,14.7,105.6z"/>
		<path class="st3" d="M48.6,128.2c3.2,2.4,7.7,4.2,7.7,4.2s18.8,3.1,29.4-8.1C99.2,110,98,98.9,107.3,87.5
			c7.8-9.6,13.4-8.8,13.4-8.8l-3.5-0.4c0,0-7.9-0.9-17,12.5c-7,10.3-7.3,20.9-18.9,31.3C74.7,128.1,61.5,133.1,48.6,128.2z"/>
		<path class="st3" d="M95.6,75.6c-0.9-0.1-5.8,0.3-11.5,3c-5.7,2.8-7.7,9.3,0.5,10.6c8.2,1.3,16.2-2.5,21.2-6.8
			c4.8-4.1,2.3-5.3,2.1-5.4C103.1,76.6,96.5,75.7,95.6,75.6z"/>
		<path class="st7" d="M102.7,76.4c-1.1,0-2.4,0.2-3.3,0.6c-1.2,0.5-3.7,1.8-5.2,2.8c-0.7,0.4-1.2,0.8-1.5,1.1
			c-1,0.7-1.9,1.3-2.8,1.7c-0.8,0.4-1.5,0.6-2,0.5c-0.5-0.1-0.6-0.3-0.3-0.8c0.3-0.5,1-1.1,2.1-1.9c1.4-1,2.6-1.7,3.5-2
			c0.5-0.2,1.1-0.4,1.5-0.5c0.4-0.1,2.8-0.6,4.6-1.9c-1-0.1-1-0.1-2-0.2c-1.4,0.1-3.1,0.4-4.6,0.9c-1.3,0.4-2.6,1.1-3.7,1.8
			c-0.1,0.1-0.2,0.1-0.3,0.2l-1.2-0.1c-0.7-0.1-2.1,0.4-3.1,1.1L84,79.8c-1,0.7-1.1,1.3-0.4,1.4l1.2,0.1c-0.4,0.3-0.7,0.7-1.1,1
			c-0.8,0.8-1.2,1.3-1.6,1.9c-0.4,0.6-0.5,1.1-0.3,1.5c0.2,0.4,0.7,0.7,1.5,0.8c0.8,0.1,1.7,0,2.7-0.3c1-0.3,2.1-0.6,3.2-1.1
			c1.1-0.5,2-1.1,3.2-1.8c1.1-0.6,2.1-1.3,3.1-2c2.4-1.8,4.2-2.7,4.9-3c0.5-0.2,0.8-0.3,1.4-0.4c0.5-0.1,1,0,1.1,0.1
			c0.1,0.1,0.2,0.2,0,0.4c-0.6,0.7-2.8,2.3-4.1,3.2c-1,0.7-2,1.3-2.7,1.8c-1.5,0.9-2.9,1.1-3.2,1.1c-0.3,0-1.1,0.7-3,2.1
			c-2,1.4-1.3,1.5-0.9,1.5c0.6,0,1.3-0.1,2-0.2c1.1-0.2,2.1-0.6,3.1-1c2.3-1,4-2.3,5.1-3c0.4-0.3,0.7-0.5,1.1-0.7l2,0.2
			c0.7,0.1,2.1-0.4,3.1-1.1l0.4-0.3c1-0.7,1.1-1.3,0.4-1.4l-1.8-0.2c0.3-0.2,0.7-0.5,0.9-0.7c1-0.8,1.4-1.1,1.6-1.4
			c0.5-0.5,0.9-1.2-0.3-1.4C105.9,76.8,104.3,76.6,102.7,76.4z"/>
		<path class="st3" d="M134.5,84.7c11.2,0.5,22.7-1.1,22.7-1.1s-4.1,7.9-7.7,11.4c-3.6,3.5-7.2,3.6-7.2,3.6s-0.8-0.6-1.3-1.3
			c1.8-0.3,4.7-1.6,7.4-4.2c0.6-0.6,1.4-1.5,1.9-2.2c-3.5,0.3-2.1-3.4-1.1-4.1c-3,0.1-6.7,0.4-13.6,0.1L134.5,84.7z"/>
	</g>
</g>
</svg>
