<svg style="position: absolute; width: 0; height: 0; overflow: hidden;" version="1.1" xmlns="http://www.w3.org/2000/svg" xmlns:xlink="http://www.w3.org/1999/xlink">
<defs>
<symbol id="case" viewBox="0 0 39 32">
<path class="path1" fill="#013e7e" d="M25.090 13.366h-11.235c-1.465-0.002-2.651-1.189-2.654-2.653v-8.080c0.014-1.455 1.196-2.63 2.653-2.632h11.235c1.465 0.002 2.651 1.189 2.654 2.653v8.080c-0.014 1.455-1.196 2.63-2.653 2.632zM14.361 10.206h10.24v-7.046h-10.24z"></path>
<path class="path2" fill="#013e7e" d="M38.638 16.334c-3.942 1.901-8.871 3.143-14.203 3.619v1.812c-0.009 0.251-0.215 0.451-0.467 0.451-0.005 0-0.009-0-0.014-0h-8.93c-0.004 0-0.008 0-0.013 0-0.252 0-0.458-0.2-0.467-0.45l-0-1.812c-5.354-0.476-10.291-1.718-14.216-3.619l-0.327-0.174v13.268c0 1.409 1.142 2.552 2.551 2.552h33.858c1.409 0 2.551-1.142 2.551-2.552v-13.268z"></path>
<path class="path3" fill="#013e7e" d="M36.41 6.379h-33.858c-1.409 0-2.551 1.142-2.551 2.552v4.899q0.587 0.323 1.225 0.634c3.678 1.773 8.284 2.943 13.306 3.402v-1.378c0.007-0.253 0.214-0.455 0.468-0.455 0.005 0 0.009 0 0.014 0h8.93c0.004-0 0.008-0 0.013-0 0.254 0 0.461 0.202 0.468 0.455v1.374c5.018-0.464 9.628-1.633 13.306-3.402q0.638-0.31 1.225-0.634v-4.895c0 0 0 0 0 0 0-1.406-1.138-2.547-2.543-2.551z"></path>
<path class="path4" fill="#1d99b3" d="M16.253 17.758h6.46v2.739h-6.46v-2.739z"></path>
</symbol>
<symbol id="globe" viewBox="0 0 32 32">
<path class="path1" fill="#013e7e" d="M16 32c-8.837 0-16-7.163-16-16s7.163-16 16-16c8.837 0 16 7.163 16 16-0.010 8.832-7.168 15.99-15.999 16zM16 2.631c0 0 0 0 0 0-7.383 0-13.369 5.985-13.369 13.369s5.985 13.369 13.369 13.369c7.383 0 13.369-5.985 13.369-13.369-0.008-7.38-5.989-13.361-13.368-13.369z"></path>
<path class="path2" fill="#013e7e" d="M16 31.605c-5.134 0-9.156-6.855-9.156-15.605s4.021-15.605 9.156-15.605 9.156 6.855 9.156 15.605-4.021 15.605-9.156 15.605zM16 2.236c-3.964 0-7.314 6.297-7.314 13.764s3.349 13.764 7.314 13.764 7.314-6.297 7.314-13.764-3.349-13.764-7.314-13.764z"></path>
<path class="path3" fill="#013e7e" d="M28.171 7.776c-0.379-0.557-0.757-1.040-1.162-1.498-2.735 1.545-6.692 2.551-11.009 2.551s-8.274-1.006-11.022-2.535c-0.393 0.443-0.772 0.926-1.119 1.433 2.997 1.842 7.296 2.941 12.142 2.941s9.145-1.099 12.171-2.891z"></path>
<path class="path4" fill="#013e7e" d="M3.833 24.224c0.378 0.557 0.755 1.040 1.159 1.499 2.727-1.563 6.685-2.551 11.008-2.551s8.274 1.006 11.022 2.535c0.393-0.443 0.772-0.926 1.12-1.433-2.997-1.842-7.296-2.941-12.142-2.941s-9.145 1.099-12.167 2.891z"></path>
<path class="path5" fill="#013e7e" d="M1.316 15.079h29.369v1.842h-29.369v-1.842z"></path>
<path class="path6" fill="#013e7e" d="M14.948 1.316h2.105v29.369h-2.105v-29.369z"></path>
</symbol>
<symbol id="chart" viewBox="0 0 32 32">
<path class="path1" fill="#013e7e" d="M10.311 10.905h0.117v-10.638h-0.238v10.645z"></path>
<path class="path2" fill="#013e7e" d="M10.311 13.831h-0.117v6.4h0.235v-6.4z"></path>
<path class="path3" fill="#013e7e" d="M10.311 23.157h-0.117v5.234h0.238v-5.237z"></path>
<path class="path4" fill="#013e7e" d="M18.169 21.813c0-0.039 0-0.078 0-0.117s0-0.078 0-0.121h-6.4c0 0.039 0 0.078 0 0.121s0 0.078 0 0.117z"></path>
<path class="path5" fill="#013e7e" d="M28.388 27.541h1.145v0.974h-1.145v-0.974z"></path>
<path class="path6" fill="#013e7e" d="M19.061 27.541h1.145v0.974h-1.145v-0.974z"></path>
<path class="path7" fill="#013e7e" d="M9.735 27.541h1.145v0.974h-1.145v-0.974z"></path>
<path class="path8" fill="#013e7e" d="M3.484 21.124h0.974v1.145h-0.974v-1.145z"></path>
<path class="path9" fill="#013e7e" d="M3.484 2.468h0.974v1.145h-0.974v-1.145z"></path>
<path class="path10" fill="#013e7e" d="M31.815 32h-31.815v-31.868h1.813v30.055h30.002v1.813z"></path>
<path class="path11" fill="#013e7e" d="M8.836 21.689c0-0.039 0-0.078 0-0.121h-5.333v0.238h5.333c0.004-0.032 0-0.071 0-0.117z"></path>
<path class="path12" fill="#013e7e" d="M19.634 23.164h-0.117v5.333h0.238v-5.333z"></path>
<path class="path13" fill="#1d99b3" d="M18.489 22.588c-0.189-0.243-0.303-0.553-0.303-0.889s0.114-0.646 0.306-0.892l-7.028 0.003c0.189 0.243 0.303 0.553 0.303 0.889s-0.114 0.646-0.306 0.892z"></path>
<path class="path14" fill="#1d99b3" d="M27.47 12.476l-7.758 7.762c0.671 0.036 1.219 0.52 1.353 1.157l7.579-7.567c-0.642-0.143-1.123-0.684-1.173-1.346z"></path>
<path class="path15" fill="#013e7e" d="M28.96 10.873h0.117v-10.606h-0.238v10.613z"></path>
<path class="path16" fill="#1d99b3" d="M10.311 20.466c0.676 0.004 1.223 0.553 1.223 1.23 0 0.679-0.551 1.23-1.23 1.23s-1.23-0.551-1.23-1.23c0-0.003 0-0.005 0-0.007 0.006-0.676 0.556-1.223 1.234-1.223 0.001 0 0.003 0 0.004 0zM10.311 19.989c0 0 0 0 0 0-0.943 0-1.707 0.764-1.707 1.707s0.764 1.707 1.707 1.707c0.943 0 1.707-0.764 1.707-1.707s-0.764-1.707-1.707-1.707z"></path>
<path class="path17" fill="#013e7e" d="M11.762 12.249c0 0.039 0 0.078 0 0.117s0 0.078 0 0.117h15.712c0-0.039 0-0.078 0-0.117s0-0.078 0-0.117z"></path>
<path class="path18" fill="#013e7e" d="M8.843 12.366c0-0.039 0-0.078 0-0.117h-5.348v0.238h5.355c-0.004-0.043-0.007-0.078-0.007-0.121z"></path>
<path class="path19" fill="#013e7e" d="M31.812 12.366c0-0.039 0-0.078 0-0.117h-1.394v0.238h1.401c-0.004-0.043-0.007-0.078-0.007-0.121z"></path>
<path class="path20" fill="#013e7e" d="M10.311 11.136c0.679 0 1.23 0.551 1.23 1.23s-0.551 1.23-1.23 1.23c-0.679 0-1.23-0.551-1.23-1.23 0.002-0.679 0.552-1.228 1.23-1.23zM10.311 10.667c0 0 0 0 0 0-0.943 0-1.707 0.764-1.707 1.707s0.764 1.707 1.707 1.707c0.943 0 1.707-0.764 1.707-1.707s-0.764-1.707-1.707-1.707z"></path>
<path class="path21" fill="#013e7e" d="M20.949 3.676c-0.242 0.494-0.74 0.828-1.317 0.828-0.742 0-1.354-0.552-1.449-1.268l-7.691 7.683c0.659 0.087 1.175 0.603 1.261 1.255l7.635-7.626 8.256 16.512c0.242-0.492 0.74-0.825 1.315-0.825 0 0 0 0 0 0 0.1 0.001 0.197 0.011 0.29 0.030z"></path>
<path class="path22" fill="#013e7e" d="M19.911 1.604l-0.036-0.071-0.057 0.057z"></path>
<path class="path23" fill="#013e7e" d="M19.634 1.579h0.121v-1.579h-0.238v1.582z"></path>
<path class="path24" fill="#013e7e" d="M19.634 4.501h-0.117v15.73h0.238v-15.733z"></path>
<path class="path25" fill="#013e7e" d="M18.169 3.040c0-0.039 0-0.078 0-0.117h-14.674v0.238h14.681c-0.004-0.043-0.007-0.082-0.007-0.121z"></path>
<path class="path26" fill="#013e7e" d="M21.088 2.919c0 0.039 0 0.078 0 0.117s0 0.078 0 0.117h10.727v-0.235z"></path>
<path class="path27" fill="#013e7e" d="M19.634 1.81c0.679 0 1.23 0.551 1.23 1.23s-0.551 1.23-1.23 1.23c-0.679 0-1.23-0.551-1.23-1.23 0.002-0.679 0.552-1.228 1.23-1.23zM19.634 1.333c-0.002 0-0.005 0-0.007 0-0.943 0-1.707 0.764-1.707 1.707s0.764 1.707 1.707 1.707c0.943 0 1.707-0.764 1.707-1.707s-0.764-1.707-1.707-1.707z"></path>
<path class="path28" fill="#013e7e" d="M30.418 21.575c0 0.039 0 0.078 0 0.117s0 0.078 0 0.121h1.401v-0.238z"></path>
<path class="path29" fill="#013e7e" d="M27.502 21.813c0-0.039 0-0.078 0-0.121s0-0.078 0-0.117h-6.4c0 0.039 0 0.078 0 0.121s0 0.078 0 0.117z"></path>
<path class="path30" fill="#013e7e" d="M28.96 20.231h0.117v-6.364h-0.235v6.4z"></path>
<path class="path31" fill="#013e7e" d="M28.96 23.157h-0.117v5.348h0.238v-5.351z"></path>
<path class="path32" fill="#013e7e" d="M28.96 20.466c0.001 0 0.002 0 0.004 0 0.679 0 1.23 0.551 1.23 1.23s-0.551 1.23-1.23 1.23c-0.679 0-1.23-0.551-1.23-1.23 0-0.003 0-0.005 0-0.008 0.002-0.678 0.552-1.228 1.23-1.23zM28.96 19.989c0 0 0 0 0 0-0.943 0-1.707 0.764-1.707 1.707s0.764 1.707 1.707 1.707c0.943 0 1.707-0.764 1.707-1.707s-0.764-1.707-1.707-1.707z"></path>
<path class="path33" fill="#1d99b3" d="M19.634 20.466c0.678 0.002 1.227 0.552 1.227 1.23 0 0.679-0.551 1.23-1.23 1.23s-1.23-0.551-1.23-1.23c0-0.003 0-0.005 0-0.008 0.002-0.678 0.552-1.228 1.23-1.23zM19.634 19.989c-0.002 0-0.005 0-0.007 0-0.943 0-1.707 0.764-1.707 1.707s0.764 1.707 1.707 1.707c0.943 0 1.707-0.764 1.707-1.707 0-0.003 0-0.005-0-0.007 0-0.942-0.764-1.706-1.707-1.706z"></path>
<path class="path34" fill="#1d99b3" d="M28.96 11.136c0.001 0 0.002 0 0.004 0 0.679 0 1.23 0.551 1.23 1.23s-0.551 1.23-1.23 1.23c-0.679 0-1.23-0.551-1.23-1.23 0.002-0.679 0.552-1.228 1.23-1.23zM28.96 10.66c0 0 0 0 0 0-0.943 0-1.707 0.764-1.707 1.707s0.764 1.707 1.707 1.707c0.943 0 1.707-0.764 1.707-1.707s-0.764-1.707-1.707-1.707z"></path>
<path class="path35" fill="#1d99b3" d="M3.481 28.519h1.262l5.372-5.376c-0.659-0.087-1.175-0.603-1.261-1.255l-5.373 5.372z"></path>
<path class="path36" fill="#013e7e" d="M3.481 11.477v1.778h5.668c-0.189-0.243-0.302-0.553-0.302-0.889s0.114-0.646 0.305-0.892z"></path>
</symbol>
<symbol id="positive" viewBox="0 0 32 32">
<path class="path1" fill="#1d99b3" d="M24.050 13.511v15.008h3.232v-18.24l-3.232 3.232z"></path>
<path class="path2" fill="#1d99b3" d="M18.905 18.652v9.867h3.236v-13.099l-3.236 3.232z"></path>
<path class="path3" fill="#1d99b3" d="M13.764 17.088v11.431h3.236v-8.199l-3.236-3.232z"></path>
<path class="path4" fill="#1d99b3" d="M11.534 14.859l-2.912 2.912v10.748h3.232v-13.34l-0.32-0.32z"></path>
<path class="path5" fill="#1d99b3" d="M3.481 22.912v5.607h3.232v-8.843l-3.232 3.236z"></path>
<path class="path6" fill="#013e7e" d="M3.481 20.544l8.053-8.053 5.586 5.586 12.9-12.9-1.266-1.269-11.634 11.634-5.586-5.582-8.053 8.053v2.532z"></path>
<path class="path7" fill="#013e7e" d="M31.95 32h-31.95v-32h1.824v30.18h30.126v1.82z"></path>
<path class="path8" fill="#013e7e" d="M26.379 4.423l4.356-1.173-1.163 4.359-3.193-3.186z"></path>
</symbol>
</defs>
</svg>
