<?xml version="1.0" encoding="utf-8"?>
<!-- Generator: Adobe Illustrator 20.0.0, SVG Export Plug-In . SVG Version: 6.00 Build 0)  -->
<svg version="1.1" id="Layer_1" xmlns="http://www.w3.org/2000/svg" xmlns:xlink="http://www.w3.org/1999/xlink" x="0px" y="0px"
	 viewBox="0 0 1921.2 1154.6" style="enable-background:new 0 0 1921.2 1154.6;" xml:space="preserve">
<style type="text/css">
	.st0{fill:url(#SVGID_1_);}
	.st1{fill:#FFFFFF;}
	.st2{fill:none;}
	.st3{fill:#AFDDE7;}
	.st4{opacity:0.14;fill:#FFFFFF;enable-background:new    ;}
	.st5{fill:#47B3CA;}
</style>
<linearGradient id="SVGID_1_" gradientUnits="userSpaceOnUse" x1="960.3403" y1="-0.5408" x2="960.3403" y2="710.5349" gradientTransform="matrix(1 0 0 -1 0 1153.2385)">
	<stop  offset="0" style="stop-color:#92D2DF"/>
	<stop  offset="0.2984" style="stop-color:#C2E4EC"/>
	<stop  offset="0.6053" style="stop-color:#E4F3F7"/>
	<stop  offset="0.85" style="stop-color:#F8FCFD"/>
	<stop  offset="1" style="stop-color:#FFFFFF"/>
</linearGradient>
<polygon class="st0" points="1766.4,304.9 1655.4,230 1470.3,419.2 1086.7,362.5 916.2,411 700.5,312.4 558.5,370.7 400.3,323.6 
	31.5,453.8 0.3,453.8 0.3,464.8 0.3,495.6 0.3,1153.8 1920.3,1153.8 1920.3,495.6 1920.3,453.8 1920.3,21.5 "/>
<g>
	<rect x="0.2" y="441.9" transform="matrix(0.9403 -0.3403 0.3403 0.9403 -150.5648 27.3496)" class="st1" width="5" height="2"/>
</g>
<g>
	<path class="st1" d="M14.9,439.7l-0.7-1.9l9.5-3.3l0.7,1.9L14.9,439.7z M33.8,433l-0.7-1.9l9.5-3.3l0.7,1.9L33.8,433z M52.7,426.4
		l-0.7-1.9l9.5-3.3l0.7,1.9L52.7,426.4z M71.7,419.7l-0.7-1.9l9.5-3.3l0.7,1.9L71.7,419.7z M90.6,413l-0.7-1.9l9.5-3.3l0.7,1.9
		L90.6,413z M109.5,406.3l-0.7-1.9l9.5-3.3l0.7,1.9L109.5,406.3z M128.4,399.6l-0.7-1.9l9.5-3.3l0.7,1.9L128.4,399.6z M147.4,392.9
		l-0.7-1.9l9.5-3.3l0.7,1.9L147.4,392.9z M166.3,386.3l-0.7-1.9l9.5-3.3l0.7,1.9L166.3,386.3z M185.2,379.6l-0.7-1.9l9.5-3.3
		l0.7,1.9L185.2,379.6z M204.2,372.9l-0.7-1.9l9.5-3.3l0.7,1.9L204.2,372.9z M223.1,366.2l-0.7-1.9l9.5-3.3l0.7,1.9L223.1,366.2z
		 M242,359.5l-0.7-1.9l9.5-3.3l0.7,1.9L242,359.5z M260.9,352.8l-0.7-1.9l9.5-3.3l0.7,1.9L260.9,352.8z M556.2,350l-9.6-2.9l0.6-1.9
		l9.6,2.9L556.2,350z M566.3,347.6l-0.8-1.8l9.3-3.8l0.8,1.9L566.3,347.6z M279.9,346.2l-0.7-1.9l9.5-3.3l0.7,1.9L279.9,346.2z
		 M537,344.3l-9.6-2.9l0.6-1.9l9.6,2.9L537,344.3z M584.8,340l-0.8-1.8l9.3-3.8l0.8,1.9L584.8,340z M298.8,339.5l-0.7-1.9l9.5-3.3
		l0.7,1.9L298.8,339.5z M517.8,338.6l-9.6-2.9l0.6-1.9l9.6,2.9L517.8,338.6z M498.5,332.9l-9.6-2.9l0.6-1.9l9.6,2.9L498.5,332.9z
		 M317.7,332.8l-0.7-1.9l9.5-3.3l0.7,1.9L317.7,332.8z M603.4,332.3l-0.8-1.9l9.3-3.8l0.8,1.9L603.4,332.3z M479.3,327.1l-9.6-2.9
		l0.6-1.9l9.6,2.9L479.3,327.1z M336.7,326.1l-0.7-1.9l9.5-3.3l0.7,1.9L336.7,326.1z M622,324.7l-0.8-1.9l9.3-3.8l0.8,1.9L622,324.7
		z M460.1,321.4l-9.6-2.9l0.6-1.9l9.6,2.9L460.1,321.4z M355.6,319.4l-0.7-1.9l9.5-3.3l0.7,1.9L355.6,319.4z M640.5,317.1l-0.8-1.8
		l9.3-3.8l0.8,1.9L640.5,317.1z M440.8,315.7l-9.6-2.9l0.6-1.9l9.6,2.9L440.8,315.7z M374.5,312.8l-0.7-1.9l9.5-3.3l0.7,1.9
		L374.5,312.8z M421.6,309.9l-9.6-2.9l0.6-1.9l9.6,2.9L421.6,309.9z M659.1,309.5l-0.8-1.8l9.3-3.8l0.8,1.8L659.1,309.5z
		 M393.5,306.1l-0.7-1.9l7.5-2.7l2.6,0.8l-0.6,1.9l-2-0.6L393.5,306.1z M677.7,301.8l-0.8-1.9l9.3-3.8l0.8,1.9L677.7,301.8z"/>
</g>
<g>
	<polygon class="st1" points="704.6,294.4 700.5,292.5 696.2,294.2 695.5,292.4 700.6,290.3 705.5,292.6 	"/>
</g>
<g>
	<path class="st1" d="M1455.3,397l-9.9-1.5l0.3-2l9.9,1.5L1455.3,397z M1435.5,394.1l-9.9-1.5l0.3-2l9.9,1.5L1435.5,394.1z
		 M1415.6,391.2l-9.9-1.5l0.3-2l9.9,1.5L1415.6,391.2z M916.2,391l-1.8-0.8l0.8-1.8l1.1,0.5l7.8-2.2l0.5,1.9L916.2,391z
		 M1395.8,388.2l-9.9-1.5l0.3-2l9.9,1.5L1395.8,388.2z M905.3,386.1l-9.1-4.2l0.8-1.8l9.1,4.2L905.3,386.1z M934.3,385.9l-0.5-1.9
		l9.6-2.7l0.5,1.9L934.3,385.9z M1376,385.3l-9.9-1.5l0.3-2l9.9,1.5L1376,385.3z M1356.1,382.4l-9.9-1.5l0.3-2l9.9,1.5L1356.1,382.4
		z M953.6,380.4l-0.5-1.9l9.6-2.7l0.5,1.9L953.6,380.4z M1336.3,379.4l-9.9-1.5l0.3-2l9.9,1.5L1336.3,379.4z M887,377.7l-9.1-4.2
		l0.8-1.8l9.1,4.2L887,377.7z M1316.4,376.5l-9.9-1.5l0.3-2l9.9,1.5L1316.4,376.5z M972.9,374.9l-0.5-1.9l9.6-2.7l0.5,1.9
		L972.9,374.9z M1296.6,373.5l-9.9-1.5l0.3-2l9.9,1.5L1296.6,373.5z M1276.7,370.6l-9.9-1.5l0.3-2l9.9,1.5L1276.7,370.6z
		 M992.2,369.4l-0.5-1.9l9.6-2.7l0.5,1.9L992.2,369.4z M868.8,369.4l-9.1-4.2l0.8-1.8l9.1,4.2L868.8,369.4z M1256.9,367.7l-9.9-1.5
		l0.3-2l9.9,1.5L1256.9,367.7z M1237.1,364.7l-9.9-1.5l0.3-2l9.9,1.5L1237.1,364.7z M1011.5,363.9l-0.5-1.9l9.6-2.7l0.5,1.9
		L1011.5,363.9z M1217.2,361.8l-9.9-1.5l0.3-2l9.9,1.5L1217.2,361.8z M850.5,361l-9.1-4.2l0.8-1.8l9.1,4.2L850.5,361z M1197.4,358.9
		l-9.9-1.5l0.3-2l9.9,1.5L1197.4,358.9z M1030.7,358.4l-0.5-1.9l9.6-2.7l0.5,1.9L1030.7,358.4z M1177.5,355.9l-9.9-1.5l0.3-2
		l9.9,1.5L1177.5,355.9z M1157.7,353l-9.9-1.5l0.3-2l9.9,1.5L1157.7,353z M1050,353l-0.5-1.9l9.6-2.7l0.5,1.9L1050,353z
		 M832.3,352.7l-9.1-4.2l0.8-1.8l9.1,4.2L832.3,352.7z M1137.9,350.1l-9.9-1.5l0.3-2l9.9,1.5L1137.9,350.1z M1069.3,347.5l-0.5-1.9
		l9.6-2.7l0.5,1.9L1069.3,347.5z M1118,347.1l-9.9-1.5l0.3-2l9.9,1.5L1118,347.1z M814.1,344.4l-9.1-4.2l0.8-1.8l9.1,4.2
		L814.1,344.4z M1098.2,344.2l-9.9-1.5l0.3-2l9.9,1.5L1098.2,344.2z M795.8,336l-9.1-4.2l0.8-1.8l9.1,4.2L795.8,336z M777.6,327.7
		l-9.1-4.2l0.8-1.8l9.1,4.2L777.6,327.7z M759.3,319.3l-9.1-4.2l0.8-1.8l9.1,4.2L759.3,319.3z M741.1,311l-9.1-4.2l0.8-1.8l9.1,4.2
		L741.1,311z M722.8,302.7l-9.1-4.2l0.8-1.8l9.1,4.2L722.8,302.7z"/>
</g>
<g>
	<polygon class="st1" points="1470.7,399.2 1465.3,398.5 1465.6,396.5 1470,397.1 1473.1,393.9 1474.6,395.3 	"/>
</g>
<g>
	<path class="st1" d="M1481.8,388.1l-1.4-1.4l7.1-7.3l1.4,1.4L1481.8,388.1z M1496,373.5l-1.4-1.4l7.1-7.3l1.4,1.4L1496,373.5z
		 M1510.2,358.9l-1.4-1.4l7.1-7.3l1.4,1.4L1510.2,358.9z M1524.5,344.4l-1.4-1.4l7.1-7.3l1.4,1.4L1524.5,344.4z M1538.7,329.8
		l-1.4-1.4l7.1-7.3l1.4,1.4L1538.7,329.8z M1553,315.2l-1.4-1.4l7.1-7.3l1.4,1.4L1553,315.2z M1567.2,300.6l-1.4-1.4l7.1-7.3
		l1.4,1.4L1567.2,300.6z M1581.4,286.1l-1.4-1.4l7.1-7.3l1.4,1.4L1581.4,286.1z M1595.7,271.5l-1.4-1.4l7.1-7.3l1.4,1.4
		L1595.7,271.5z M1609.9,256.9l-1.4-1.4l7.1-7.3l1.4,1.4L1609.9,256.9z M1624.2,242.4l-1.4-1.4l7.1-7.3l1.4,1.4L1624.2,242.4z
		 M1638.4,227.8l-1.4-1.4l7.1-7.3l1.4,1.4L1638.4,227.8z"/>
</g>
<g>
	<polygon class="st1" points="1652.7,213.3 1651.2,211.9 1655.3,207.7 1660.1,211 1659,212.6 1655.6,210.3 	"/>
</g>
<g>
	<path class="st1" d="M1753.8,276.6l-7.9-5.3l1.1-1.7l7.9,5.3L1753.8,276.6z M1738,265.9l-7.9-5.3l1.1-1.7l7.9,5.3L1738,265.9z
		 M1722.2,255.3l-7.9-5.3l1.1-1.7l7.9,5.3L1722.2,255.3z M1706.4,244.6l-7.9-5.3l1.1-1.7l7.9,5.3L1706.4,244.6z M1690.6,233.9
		l-7.9-5.3l1.1-1.7l7.9,5.3L1690.6,233.9z M1674.8,223.2l-7.9-5.3l1.1-1.7l7.9,5.3L1674.8,223.2z"/>
</g>
<g>
	<polygon class="st1" points="1766.8,285.3 1761.8,281.9 1762.9,280.3 1766.1,282.4 1768,279 1769.7,280 	"/>
</g>
<g>
	<path class="st1" d="M1774.5,271.2l-1.8-1l4.8-8.9l1.8,1L1774.5,271.2z M1784.1,253.4l-1.8-1l4.8-8.9l1.8,1L1784.1,253.4z
		 M1793.8,235.7l-1.8-1l4.8-8.9l1.8,1L1793.8,235.7z M1803.4,218l-1.8-1l4.8-8.9l1.8,1L1803.4,218z M1813,200.3l-1.8-1l4.8-8.9
		l1.8,1L1813,200.3z M1822.6,182.5l-1.8-1l4.8-8.9l1.8,1L1822.6,182.5z M1832.2,164.8l-1.8-1l4.8-8.9l1.8,1L1832.2,164.8z
		 M1841.9,147.1l-1.8-1l4.8-8.9l1.8,1L1841.9,147.1z M1851.5,129.4l-1.8-1l4.8-8.9l1.8,1L1851.5,129.4z M1861.1,111.7l-1.8-1
		l4.8-8.9l1.8,1L1861.1,111.7z M1870.7,93.9l-1.8-1l4.8-8.9l1.8,1L1870.7,93.9z M1880.3,76.2l-1.8-1l4.8-8.9l1.8,1L1880.3,76.2z
		 M1890,58.5l-1.8-1l4.8-8.9l1.8,1L1890,58.5z M1899.6,40.8l-1.8-1l4.8-8.9l1.8,1L1899.6,40.8z M1909.2,23l-1.8-1l4.8-8.9l1.8,1
		L1909.2,23z"/>
</g>
<g>
	<rect x="1916.6" y="1.7" transform="matrix(0.479 -0.8778 0.8778 0.479 997.6071 1686.0934)" class="st1" width="5" height="2"/>
</g>
<path class="st2" d="M50.9,731.4c1.8,2.8,3.5,5.6,5.2,8.5c12.2-8.5,20.2-22.7,20.2-38.6c0-4.6-0.7-9-1.9-13.2
	c-3.2,0.8-6.4,1.7-9.6,2.5c1,3.4,1.6,7,1.6,10.7C66.4,713.7,60.3,724.6,50.9,731.4z"/>
<path class="st2" d="M28.8,687.9c-7.4,0-13.4,6-13.4,13.4c0,1,0.1,2,0.3,2.9c4-1.5,8.1-2.9,12.1-4.2c-0.2-0.3-0.4-0.6-0.6-0.8l1.4-1
	c0.3,0.4,0.6,0.9,0.9,1.3c3.8-1.3,7.6-2.5,11.4-3.7C38.9,691.1,34.2,687.9,28.8,687.9z"/>
<path class="st2" d="M29.3,731.5c16.7,0,30.3-13.6,30.3-30.2c0-3.1-0.5-6-1.3-8.8c-3.3,1-6.7,1.9-10,2.9c0.6,1.9,0.9,3.8,0.9,5.9
	c0,11.2-9.1,20.3-20.3,20.3c-8.7,0-16.1-5.5-19-13.2c-3,1.1-6,2.3-8.9,3.4C5.2,723.3,16.3,731.5,29.3,731.5z"/>
<path class="st2" d="M28.8,714.7c2.8,0,5.4-0.9,7.6-2.4c-2.4-3.6-4.9-7.2-7.4-10.8c-4.2,1.4-8.5,2.9-12.7,4.4
	C18.2,711,23.1,714.7,28.8,714.7z"/>
<path class="st2" d="M42.2,701.3c0-1.3-0.2-2.6-0.6-3.9c-3.7,1.2-7.3,2.4-11,3.6c2.4,3.4,4.8,6.8,7.1,10.2
	C40.5,708.8,42.2,705.2,42.2,701.3z"/>
<path class="st3" d="M1920.3,891.2v-3.5c-9-12.1-18.4-23.9-28.3-35.4c2.5-2.5,4-5.9,4-9.6c0-2.2-0.5-4.2-1.4-6.1
	c0.4-0.2,0.8-0.5,1.3-0.7l-0.8-1.5c-0.4,0.2-0.9,0.5-1.3,0.7c-2.4-3.7-6.6-6.1-11.3-6.1c-3.2,0-6.2,1.1-8.5,3
	c-5.1-5.5-10.3-10.9-15.7-16.2c-14.7-14.7-30.1-28.7-46-41.8c1.6-2.2,2.5-4.9,2.5-7.9c0-7.5-6.1-13.6-13.6-13.6
	c-4.1,0-7.7,1.8-10.2,4.6c-42.3-32-88.3-58.6-137.5-79.4c-79.5-33.6-163.9-50.6-250.9-50.6c-25.1,0-49.9,1.4-74.5,4.2
	c-1.5-6.7-7.5-11.7-14.7-11.7c-0.3,0-0.5,0-0.8,0c-0.2-1.9-0.3-3.7-0.5-5.5l-1.7,0.1c0.1,1.9,0.3,3.7,0.5,5.6
	c-7.1,1.2-12.6,7.4-12.6,14.8c0,0.3,0,0.5,0,0.8c-34.2,5.5-67.7,13.8-100.6,24.8c-0.3-0.4-0.6-0.9-0.9-1.3l-1.4,1
	c0.2,0.3,0.4,0.6,0.6,0.8c-15,5.1-29.8,10.7-44.4,16.9c-71,30-135.3,72.1-191.3,125v2.8c67-63.6,147.6-112.9,236.9-143.1
	c3,4.3,6,8.6,8.9,12.9l1.4-1c-2.8-4.2-5.7-8.4-8.7-12.5c32.2-10.8,65.5-19.1,99.6-24.6c1.2,7,7.4,12.4,14.8,12.4c0.3,0,0.6,0,0.9,0
	c0.8,5.8,1.7,11.7,2.7,17.5l1.7-0.3c-1-5.8-1.9-11.6-2.7-17.4c7-1.2,12.4-7.4,12.4-14.8c0-0.5,0-1-0.1-1.5
	c24.4-2.8,49.1-4.3,74.2-4.3c145.3,0,279.4,48.4,387.2,130c-1.4,2.1-2.2,4.6-2.2,7.4c0,3.5,1.3,6.7,3.5,9.1
	c-2.1,2.2-4.2,4.4-6.4,6.6l1.2,1.2c2.1-2.2,4.3-4.4,6.4-6.6c2.4,2.1,5.5,3.3,8.9,3.3c3.9,0,7.3-1.6,9.8-4.2
	c21.7,17.9,42.3,37.3,61.5,57.8c-2.3,2.4-3.6,5.7-3.6,9.3c0,7.5,6.1,13.6,13.6,13.6c3,0,5.8-1,8.1-2.7
	C1900.9,865.8,1910.8,878.3,1920.3,891.2z M1320.1,634.6c0,3.7-3,6.8-6.8,6.8c-3.7,0-6.8-3-6.8-6.8c0-3.7,3-6.8,6.8-6.8
	C1317.1,627.9,1320.1,630.9,1320.1,634.6z"/>
<g>
	<path class="st3" d="M1793.2,521.1c-5.3-0.2-10.7-0.4-16-0.7l-0.1,1.7c5.3,0.3,10.8,0.6,16.1,0.7V521.1z"/>
</g>
<g>
	<path class="st3" d="M1889.3,515.9c-5.3,0.7-10.6,1.4-15.9,2l0.2,1.7c5.3-0.6,10.7-1.3,16-2L1889.3,515.9z"/>
</g>
<g>
	<path class="st3" d="M1857.4,519.5c-5.3,0.4-10.7,0.8-16,1.1l0.1,1.7c5.4-0.3,10.8-0.7,16.1-1.1L1857.4,519.5z"/>
</g>
<g>
	<path class="st3" d="M1905.1,513.4l0.3,1.7c5-0.8,10-1.8,14.9-2.7v-1.8C1915.3,511.6,1910.2,512.6,1905.1,513.4z"/>
</g>
<g>
	<path class="st3" d="M1810.5,521.4h-1.3v1.7h1.3c4.9,0,9.9-0.1,14.8-0.2v-1.7C1820.4,521.3,1815.4,521.4,1810.5,521.4z"/>
</g>
<g>
	<path class="st3" d="M1545.9,457.2l0.8-1.5c-4.7-2.5-9.5-5.1-14.1-7.8l-0.9,1.5C1536.4,452,1541.2,454.7,1545.9,457.2z"/>
</g>
<g>
	<path class="st3" d="M1574.8,471.6l0.7-1.6c-4.9-2.2-9.7-4.6-14.5-7l-0.8,1.5C1565.1,467,1570,469.3,1574.8,471.6z"/>
</g>
<g>
	<path class="st3" d="M1697.2,511.7l0.3-1.7c-5.2-1.1-10.5-2.2-15.7-3.4l-0.4,1.7C1686.7,509.5,1692,510.6,1697.2,511.7z"/>
</g>
<g>
	<path class="st3" d="M1728.9,517.2l0.2-1.7c-5.3-0.8-10.6-1.6-15.9-2.5l-0.3,1.7C1718.3,515.6,1723.6,516.5,1728.9,517.2z"/>
</g>
<g>
	<path class="st3" d="M1634.9,495.2l0.5-1.6c-5.1-1.7-10.2-3.4-15.2-5.2l-0.6,1.6C1624.7,491.7,1629.8,493.5,1634.9,495.2z"/>
</g>
<g>
	<path class="st3" d="M1604.5,484.2l0.6-1.6c-5-2-10-4-14.9-6.1l-0.7,1.6C1594.5,480.2,1599.5,482.3,1604.5,484.2z"/>
</g>
<g>
	<path class="st3" d="M1491.8,422.2c-4.4-3-8.8-6.2-13.1-9.3l-1,1.4c4.3,3.2,8.7,6.3,13.1,9.4L1491.8,422.2z"/>
</g>
<g>
	<path class="st3" d="M1760.9,520.9l0.1-1.7c-5.3-0.5-10.7-1-16-1.6l-0.2,1.7C1750.2,519.9,1755.6,520.5,1760.9,520.9z"/>
</g>
<g>
	<path class="st3" d="M1517.9,441.2l0.9-1.5c-4.5-2.8-9.1-5.6-13.6-8.6l-0.9,1.4C1508.7,435.5,1513.3,438.4,1517.9,441.2z"/>
</g>
<g>
	<path class="st3" d="M1666.3,502.7c-5.1-1.4-10.4-2.8-15.5-4.3l-0.5,1.6c5.1,1.5,10.3,3,15.5,4.4L1666.3,502.7z"/>
</g>
<g>
	<path class="st3" d="M1021.1,492.3l0.9-1.4c-5.2-3.4-10.6-6.8-15.9-10.1l-0.9,1.5C1010.6,485.5,1015.9,488.9,1021.1,492.3z"/>
</g>
<g>
	<path class="st3" d="M1081.3,536.9l1.1-1.3c-4.8-4-9.7-8-14.6-11.8l-1.1,1.4C1071.6,529,1076.5,532.9,1081.3,536.9z"/>
</g>
<g>
	<path class="st3" d="M1051.8,513.8l1-1.4c-5-3.7-10.1-7.4-15.2-11l-1,1.4C1041.7,506.4,1046.8,510.1,1051.8,513.8z"/>
</g>
<path class="st3" d="M1216.4,691.1c3.3,5.2,6.6,10.6,9.7,15.9l1.5-0.9c-3.2-5.4-6.5-10.7-9.8-16L1216.4,691.1z"/>
<path class="st3" d="M1318.7,1039.8h-1.7c0,6.2-0.1,12.5-0.3,18.7h1.7C1318.6,1052.4,1318.7,1046.1,1318.7,1039.8z"/>
<path class="st3" d="M1315.1,971.1l-1.7,0.2c0.6,6.2,1.2,12.5,1.7,18.6l1.7-0.1C1316.3,983.6,1315.8,977.3,1315.1,971.1z"/>
<path class="st3" d="M1310.2,933.9l-1.7,0.3c1,6.1,1.9,12.4,2.7,18.5l1.7-0.2C1312.1,946.3,1311.2,940.1,1310.2,933.9z"/>
<path class="st3" d="M1293.9,860.7l-1.7,0.5c1.7,6,3.3,12.1,4.8,18.1l1.7-0.4C1297.2,872.8,1295.6,866.7,1293.9,860.7z"/>
<path class="st3" d="M1288.5,842.7c-1.9-6-3.9-11.9-5.9-17.8l-1.6,0.6c2,5.9,4,11.8,5.9,17.8L1288.5,842.7z"/>
<path class="st3" d="M1276.2,807.2c-2.2-5.8-4.5-11.7-6.9-17.4l-1.6,0.7c2.4,5.8,4.7,11.6,6.9,17.4L1276.2,807.2z"/>
<path class="st3" d="M1307.4,1151.6c-0.2,1-0.4,2-0.5,3h1.7c0.2-0.9,0.3-1.8,0.5-2.7L1307.4,1151.6z"/>
<path class="st3" d="M1314.6,1095.9l1.7,0.1c0.5-6.2,1-12.5,1.3-18.7l-1.7-0.1C1315.5,1083.5,1315.1,1089.8,1314.6,1095.9z"/>
<path class="st3" d="M1301.4,897.5c1.3,6,2.6,12.2,3.8,18.3l1.7-0.3c-1.2-6.1-2.5-12.3-3.8-18.4L1301.4,897.5z"/>
<path class="st3" d="M1318.6,1027.3c-0.1-6.2-0.3-12.6-0.6-18.8l-1.7,0.1c0.3,6.2,0.5,12.5,0.6,18.7H1318.6z"/>
<path class="st3" d="M1312.1,1133.3c0.9-6.2,1.7-12.4,2.4-18.6l-1.7-0.2c-0.7,6.2-1.5,12.4-2.4,18.6L1312.1,1133.3z"/>
<path class="st3" d="M1135.9,588l1.2-1.2c-4.3-4.5-8.7-9-13.1-13.4l-1.2,1.2C1127.2,579,1131.7,583.5,1135.9,588z"/>
<path class="st3" d="M1254.1,755.6l-1.6,0.7c2.7,5.6,5.3,11.3,7.9,16.9l1.6-0.7C1259.4,766.9,1256.8,761.2,1254.1,755.6z"/>
<path class="st3" d="M1184.4,645l1.4-1c-3.8-5-7.6-9.9-11.5-14.8l-1.3,1.1C1176.8,635.1,1180.7,640,1184.4,645z"/>
<path class="st3" d="M1161,615.8l1.3-1.1c-4-4.7-8.2-9.5-12.4-14.1l-1.3,1.2C1152.8,606.4,1157,611.1,1161,615.8z"/>
<path class="st3" d="M1245.7,738.9c-2.9-5.5-5.8-11.1-8.8-16.5l-1.5,0.8c3,5.4,6,11,8.8,16.5L1245.7,738.9z"/>
<g>
	<path class="st3" d="M989.2,472.7l0.9-1.5c-5.4-3.1-10.9-6.2-16.4-9.2l-0.8,1.5C978.3,466.5,983.8,469.6,989.2,472.7z"/>
</g>
<path class="st3" d="M1110.5,560.4c-4.5-4.3-9.2-8.5-13.9-12.6l-1.1,1.3c4.7,4.1,9.3,8.3,13.9,12.6L1110.5,560.4z"/>
<path class="st3" d="M1638.5,897.6c-5.9,3.5-11.9,7.1-17.9,10.4l0.8,1.5c6-3.4,12.1-6.9,18-10.5L1638.5,897.6z"/>
<path class="st3" d="M1827.6,736.6l-1.3-1.1c-4.4,5.3-8.9,10.7-13.4,15.9l1.3,1.1C1818.6,747.3,1823.2,741.9,1827.6,736.6z"/>
<path class="st3" d="M1387.2,992.6c6.8-1.2,13.7-2.4,20.5-3.8l-0.3-1.7c-6.8,1.3-13.6,2.6-20.4,3.8L1387.2,992.6z"/>
<path class="st3" d="M1477.2,969.5c-2.1-4.9-6.9-8.3-12.5-8.3c-7.5,0-13.6,6.1-13.6,13.6s6.1,13.6,13.6,13.6s13.6-6.1,13.6-13.6
	c0-1.3-0.2-2.5-0.5-3.7c3.5-1.1,7.1-2.2,10.6-3.3l-0.5-1.6C1484.3,967.4,1480.7,968.5,1477.2,969.5z"/>
<path class="st3" d="M1527,952.3c-6.4,2.5-13,4.9-19.5,7.2l0.6,1.6c6.5-2.3,13.1-4.7,19.5-7.2L1527,952.3z"/>
<path class="st3" d="M1546.2,944.6l0.7,1.6c6.3-2.7,12.7-5.5,19-8.3l-0.7-1.6C1558.9,939.1,1552.5,941.9,1546.2,944.6z"/>
<path class="st3" d="M1602.4,918c-6.1,3.2-12.3,6.4-18.5,9.4l0.8,1.5c6.2-3,12.4-6.2,18.5-9.4L1602.4,918z"/>
<path class="st3" d="M1673.4,875.2c-5.7,3.9-11.5,7.7-17.3,11.4l0.9,1.4c5.8-3.7,11.6-7.6,17.4-11.5L1673.4,875.2z"/>
<path class="st3" d="M1898.3,633.6l-1.5-0.8c-3.4,6-7,12.1-10.5,18l1.5,0.9C1891.4,645.6,1894.9,639.6,1898.3,633.6z"/>
<path class="st3" d="M1840.6,720.3c4.2-5.5,8.4-11.1,12.5-16.7l-1.4-1c-4.1,5.6-8.3,11.2-12.5,16.6L1840.6,720.3z"/>
<path class="st3" d="M1739.3,824.6c-5.2,4.5-10.6,9-15.9,13.4l1.1,1.3c5.4-4.4,10.7-8.9,15.9-13.4L1739.3,824.6z"/>
<path class="st3" d="M1754.8,810.8l1.2,1.3c5.1-4.7,10.2-9.5,15.2-14.3l-1.2-1.2C1765,801.4,1759.9,806.2,1754.8,810.8z"/>
<path class="st3" d="M1865.2,686.6c3.9-5.7,7.8-11.6,11.6-17.4l-1.4-0.9c-3.7,5.8-7.6,11.6-11.5,17.3L1865.2,686.6z"/>
<path class="st3" d="M1906.9,614.5l1.5,0.8c3.2-6.1,6.4-12.4,9.5-18.6l-1.5-0.8C1913.3,602.1,1910.1,608.4,1906.9,614.5z"/>
<path class="st3" d="M1690.4,863.3l1,1.4c5.6-4.1,11.2-8.2,16.7-12.5l-1-1.4C1701.6,855.1,1696,859.3,1690.4,863.3z"/>
<path class="st3" d="M1097.6,983.7c6.7,1.6,13.6,3.1,20.3,4.5l0.3-1.7c-6.8-1.4-13.6-2.9-20.3-4.5L1097.6,983.7z"/>
<path class="st3" d="M1138.4,992c6.8,1.2,13.7,2.3,20.6,3.3l0.2-1.7c-6.8-1-13.7-2.1-20.5-3.3L1138.4,992z"/>
<path class="st3" d="M1428.1,984.4c6.7-1.5,13.5-3.2,20.2-5l-0.4-1.7c-6.7,1.7-13.5,3.4-20.2,4.9L1428.1,984.4z"/>
<path class="st3" d="M998.8,951c-6.4-2.5-12.9-5.2-19.3-7.9l-0.7,1.6c6.4,2.7,12.9,5.4,19.3,7.9L998.8,951z"/>
<path class="st3" d="M1038,965.2c-6.6-2.2-13.2-4.4-19.7-6.8l-0.6,1.6c6.5,2.4,13.2,4.6,19.8,6.8L1038,965.2z"/>
<path class="st3" d="M1200.5,998.4c-6.9-0.6-13.8-1.3-20.7-2.1l-0.2,1.7c6.9,0.8,13.8,1.5,20.7,2.1L1200.5,998.4z"/>
<path class="st3" d="M1057.3,973c6.6,2,13.4,3.9,20.1,5.6l0.4-1.7c-6.7-1.8-13.4-3.7-20-5.6L1057.3,973z"/>
<path class="st3" d="M1346,998.4c6.9-0.8,13.8-1.6,20.7-2.6l-0.2-1.7c-6.8,1-13.8,1.8-20.6,2.6L1346,998.4z"/>
<path class="st3" d="M1304.5,1001.8c6.9-0.4,13.9-0.8,20.8-1.4l-0.1-1.7c-6.9,0.6-13.8,1-20.7,1.4L1304.5,1001.8z"/>
<path class="st3" d="M1221.2,1001.6c6.9,0.4,13.9,0.7,20.8,0.9l0.1-1.7c-6.9-0.2-13.9-0.5-20.8-0.9L1221.2,1001.6z"/>
<path class="st3" d="M1262.8,1001.2v1.7h1.7c0.1,0,0.1,0,0.2,0c6.3,0,12.6-0.1,18.9-0.2v-1.7c-6.3,0.2-12.8,0.3-19.1,0.2H1262.8z"/>
<path class="st3" d="M1911.3,827.7c3-1.6,6-3.1,9-4.6v-1.9c-3.3,1.6-6.6,3.3-9.8,5L1911.3,827.7z"/>
<path class="st3" d="M1864.8,852.5c-4.9,3.1-9.9,6.4-14.7,9.6l1,1.4c4.8-3.3,9.8-6.5,14.7-9.6L1864.8,852.5z"/>
<path class="st3" d="M1710.3,994.8l-1.4-1.1c-3.6,4.6-7.2,9.3-10.7,14l1.4,1C1703.1,1004.1,1706.7,999.4,1710.3,994.8z"/>
<path class="st3" d="M1721.3,981.1c3.7-4.5,7.6-9,11.4-13.4l-1.3-1.1c-3.9,4.4-7.7,8.9-11.4,13.4L1721.3,981.1z"/>
<path class="st3" d="M1670.2,1052.6l-1.5-0.9c-2.3,3.8-4.6,7.7-6.9,11.6c0.5,0.2,1,0.5,1.6,0.7
	C1665.6,1060.2,1667.9,1056.3,1670.2,1052.6z"/>
<path class="st3" d="M1782,917.7l-1.2-1.3c-4.3,3.9-8.7,8-12.9,12l1.2,1.2C1773.4,925.6,1777.7,921.6,1782,917.7z"/>
<path class="st3" d="M1744.5,954.7c4-4.3,8.1-8.5,12.2-12.7l-1.2-1.2c-4.1,4.2-8.2,8.4-12.2,12.7L1744.5,954.7z"/>
<path class="st3" d="M1807.6,893.5c-4.5,3.7-9.1,7.5-13.5,11.3l1.1,1.3c4.4-3.8,9-7.6,13.5-11.2L1807.6,893.5z"/>
<path class="st3" d="M1835.6,872.2c-4.7,3.4-9.5,6.9-14.2,10.5l1,1.4c4.6-3.5,9.4-7,14.1-10.4L1835.6,872.2z"/>
<path class="st3" d="M1688,1022.1c-3.3,4.8-6.7,9.7-9.9,14.6l1.4,0.9c3.2-4.9,6.5-9.8,9.8-14.6L1688,1022.1z"/>
<path class="st3" d="M1702.4,1142.3l0.6-1.6c-5-2-10.1-4-15.1-6.2c-0.2,0.5-0.5,1-0.7,1.6
	C1692.3,1138.2,1697.3,1140.3,1702.4,1142.3z"/>
<path class="st3" d="M1321.8,684.3l-1.7,0.3c1.1,5.8,2.4,11.6,3.7,17.4l1.7-0.4C1324.2,695.9,1322.9,690.1,1321.8,684.3z"/>
<g>
	<path class="st3" d="M1326.8,420.5c1.4-5.7,2.8-11.5,4.3-17.2l-1.7-0.4c-1.5,5.7-3,11.5-4.3,17.2L1326.8,420.5z"/>
</g>
<path class="st3" d="M1378.8,851.5c2.7,5.2,5.6,10.4,8.4,15.6l1.5-0.8c-2.9-5.1-5.7-10.4-8.4-15.5L1378.8,851.5z"/>
<path class="st3" d="M1397.6,881.6l-1.5,0.9c3,5.1,6.2,10.1,9.3,15.1l1.4-0.9C1403.8,891.7,1400.6,886.6,1397.6,881.6z"/>
<g>
	<path class="st3" d="M1314.4,490.3c0.7-5.8,1.5-11.7,2.3-17.6l-1.7-0.3c-0.9,5.8-1.6,11.8-2.3,17.6L1314.4,490.3z"/>
</g>
<g>
	<path class="st3" d="M1319.6,455.2c1-5.8,2.2-11.7,3.3-17.4l-1.7-0.3c-1.2,5.7-2.3,11.6-3.3,17.5L1319.6,455.2z"/>
</g>
<path class="st3" d="M1339.5,752.9l-1.6,0.5c1.8,5.6,3.7,11.3,5.7,16.8l1.6-0.6C1343.2,764.2,1341.3,758.5,1339.5,752.9z"/>
<path class="st3" d="M1308.7,543.2c-0.2,5.9-0.3,11.9-0.3,17.8h1.7c0-5.9,0.1-11.8,0.3-17.7L1308.7,543.2z"/>
<path class="st3" d="M1416.7,911.4l-1.4,1c3.3,4.9,6.7,9.8,10.2,14.5l1.4-1C1423.4,921.1,1420,916.2,1416.7,911.4z"/>
<path class="st3" d="M1310.9,596.4c-0.3-5.9-0.5-11.8-0.7-17.7h-1.7c0.1,5.9,0.4,11.9,0.7,17.8L1310.9,596.4z"/>
<path class="st3" d="M1592.7,1083.9l-0.9,1.4c0.2,0.1,0.3,0.2,0.5,0.3c0.3-0.5,0.6-1,0.9-1.5C1593,1084.1,1592.8,1084,1592.7,1083.9
	z"/>
<path class="st3" d="M1520.9,1031.7l1.1-1.3c-4.4-3.9-8.9-7.9-13.2-11.9l-1.2,1.3C1512,1023.9,1516.4,1027.9,1520.9,1031.7z"/>
<path class="st3" d="M1351.2,786.3l-1.6,0.6c2.1,5.5,4.3,11,6.6,16.4l1.6-0.7C1355.6,797.3,1353.3,791.8,1351.2,786.3z"/>
<path class="st3" d="M1329.6,718.9l-1.7,0.4c1.5,5.7,3,11.5,4.7,17.1l1.7-0.5C1332.7,730.3,1331.1,724.6,1329.6,718.9z"/>
<path class="st3" d="M1577,1075.4l1-1.4c-4.8-3.3-9.7-6.8-14.4-10.3l-1,1.4C1567.2,1068.6,1572.1,1072.1,1577,1075.4z"/>
<path class="st3" d="M1494.8,1007.6l1.2-1.2c-4.2-4.1-8.4-8.3-12.5-12.6l-1.2,1.2C1486.4,999.2,1490.6,1003.5,1494.8,1007.6z"/>
<path class="st3" d="M1719.1,1148.6c5.6,2,11.2,4,16.9,5.8l0.5-1.6c-5.6-1.8-11.3-3.8-16.8-5.8L1719.1,1148.6z"/>
<path class="st3" d="M1372.4,834.9c-2.6-5.3-5.1-10.7-7.5-16l-1.6,0.7c2.4,5.3,4.9,10.7,7.5,16L1372.4,834.9z"/>
<path class="st3" d="M1437.4,940.1l-1.4,1c3.6,4.7,7.3,9.4,11,13.9l1.3-1.1C1444.6,949.4,1440.9,944.8,1437.4,940.1z"/>
<g>
	<path class="st3" d="M1312.6,507.9l-1.7-0.2c-0.5,5.9-1,11.8-1.3,17.7l1.7,0.1C1311.6,519.7,1312.1,513.7,1312.6,507.9z"/>
</g>
<path class="st3" d="M1534.4,1043.3c4.6,3.8,9.2,7.5,13.9,11.1l1.1-1.4c-4.6-3.6-9.3-7.3-13.8-11.1L1534.4,1043.3z"/>
<path class="st4" d="M1687.2,1136.1c-0.4-0.2-0.9-0.4-1.3-0.5l0.7-1.6c0.5,0.2,0.9,0.4,1.4,0.6c3.2-6.8,5-14.5,5-22.5
	c0-21-12-39.2-29.6-48c-0.7,1.2-1.5,2.5-2.2,3.7l-1.5-0.9c0.7-1.2,1.4-2.4,2.1-3.6c-6.9-3.2-14.5-5-22.6-4.9
	c-19.5,0-36.5,10.4-46.1,25.8c4.8,3.1,9.7,6.2,14.6,9.2l-0.9,1.5c-4.9-3-9.8-6.1-14.6-9.2c-4.5,7.9-7.1,16.9-7.1,26.6
	c0,17.2,8,32.5,20.6,42.3h12.4c1-2.8,2.1-5.5,3.2-8.2l1.6,0.6c-1,2.5-2,5-2.9,7.6h52C1678.4,1149.6,1683.6,1143.3,1687.2,1136.1z
	 M1637.8,1125.5c-1.9,0-3.7-0.4-5.4-1.1c-0.9,2.1-1.9,4.2-2.8,6.3l-1.6-0.7c0.9-2.1,1.9-4.3,2.8-6.4c-4-2.4-6.7-6.7-6.7-11.7
	c0-2.2,0.5-4.3,1.4-6.1c-1.2-0.7-2.3-1.3-3.5-2l0.9-1.5c1.2,0.7,2.3,1.3,3.5,2c2.4-3.6,6.6-6,11.3-6c7.5,0,13.6,6.1,13.6,13.6
	C1651.4,1119.4,1645.3,1125.5,1637.8,1125.5z M1644.5,1098.7l-1.5-0.8c2.6-5.2,5.3-10.5,8.1-15.7l1.5,0.8
	C1649.9,1088.3,1647.1,1093.5,1644.5,1098.7z M1653.6,1120.6l0.8-1.5c5.3,2.6,10.7,5.2,16,7.7l-0.7,1.6
	C1664.3,1125.8,1658.9,1123.2,1653.6,1120.6z"/>
<path class="st3" d="M1621.4,1146.4c-1.1,2.7-2.1,5.5-3.2,8.2h1.8c1-2.5,1.9-5.1,2.9-7.6L1621.4,1146.4z"/>
<path class="st4" d="M1621.4,1146.4c-1.1,2.7-2.1,5.5-3.2,8.2h1.8c1-2.5,1.9-5.1,2.9-7.6L1621.4,1146.4z"/>
<path class="st3" d="M1643,1098l1.5,0.8c2.6-5.2,5.3-10.5,8.1-15.6l-1.5-0.8C1648.3,1087.5,1645.6,1092.7,1643,1098z"/>
<path class="st4" d="M1643,1098l1.5,0.8c2.6-5.2,5.3-10.5,8.1-15.6l-1.5-0.8C1648.3,1087.5,1645.6,1092.7,1643,1098z"/>
<path class="st3" d="M1628.1,1130l1.6,0.7c0.9-2.1,1.8-4.2,2.8-6.3c-0.5-0.2-1-0.5-1.5-0.8C1630,1125.8,1629,1127.9,1628.1,1130z"/>
<path class="st4" d="M1628.1,1130l1.6,0.7c0.9-2.1,1.8-4.2,2.8-6.3c-0.5-0.2-1-0.5-1.5-0.8C1630,1125.8,1629,1127.9,1628.1,1130z"/>
<path class="st3" d="M1661.2,1067.7c0.7-1.2,1.4-2.5,2.2-3.7c-0.5-0.3-1-0.5-1.6-0.7c-0.7,1.2-1.4,2.4-2.1,3.6L1661.2,1067.7z"/>
<path class="st4" d="M1661.2,1067.7c0.7-1.2,1.4-2.5,2.2-3.7c-0.5-0.3-1-0.5-1.6-0.7c-0.7,1.2-1.4,2.4-2.1,3.6L1661.2,1067.7z"/>
<path class="st3" d="M1654.3,1119.1l-0.8,1.5c5.3,2.6,10.7,5.2,16.1,7.7l0.7-1.6C1665,1124.3,1659.6,1121.7,1654.3,1119.1z"/>
<path class="st4" d="M1654.3,1119.1l-0.8,1.5c5.3,2.6,10.7,5.2,16.1,7.7l0.7-1.6C1665,1124.3,1659.6,1121.7,1654.3,1119.1z"/>
<path class="st3" d="M1607.7,1093.3c-4.9-3-9.8-6.1-14.6-9.2c-0.3,0.5-0.6,1-0.9,1.5c4.8,3.1,9.7,6.2,14.6,9.2L1607.7,1093.3z"/>
<path class="st4" d="M1607.7,1093.3c-4.9-3-9.8-6.1-14.6-9.2c-0.3,0.5-0.6,1-0.9,1.5c4.8,3.1,9.7,6.2,14.6,9.2L1607.7,1093.3z"/>
<path class="st3" d="M1623,1102.4l-0.9,1.5c1.2,0.7,2.3,1.3,3.5,2c0.3-0.5,0.5-1,0.9-1.5C1625.3,1103.7,1624.2,1103,1623,1102.4z"/>
<path class="st4" d="M1623,1102.4l-0.9,1.5c1.2,0.7,2.3,1.3,3.5,2c0.3-0.5,0.5-1,0.9-1.5C1625.3,1103.7,1624.2,1103,1623,1102.4z"/>
<path class="st3" d="M1685.9,1135.5c0.4,0.2,0.9,0.4,1.3,0.5c0.3-0.5,0.5-1,0.7-1.6c-0.5-0.2-0.9-0.4-1.4-0.6L1685.9,1135.5z"/>
<path class="st4" d="M1685.9,1135.5c0.4,0.2,0.9,0.4,1.3,0.5c0.3-0.5,0.5-1,0.7-1.6c-0.5-0.2-0.9-0.4-1.4-0.6L1685.9,1135.5z"/>
<path class="st3" d="M1637.8,1098.3c-4.7,0-8.9,2.4-11.3,6c-0.3,0.5-0.6,1-0.9,1.5c-0.9,1.8-1.4,3.9-1.4,6.1c0,5,2.7,9.4,6.7,11.7
	c0.5,0.3,1,0.6,1.5,0.8c1.6,0.7,3.5,1.1,5.4,1.1c7.5,0,13.6-6.1,13.6-13.6C1651.4,1104.4,1645.3,1098.3,1637.8,1098.3z"/>
<path class="st3" d="M1212.7,1134.4c5.5,2.2,11,4.5,16.4,6.8l0.7-1.6c-5.4-2.3-11-4.6-16.5-6.8L1212.7,1134.4z"/>
<path class="st3" d="M970,1090.7c5.9-0.1,11.8-0.2,17.7-0.1v-1.7c-5.9,0-11.9,0-17.8,0.1L970,1090.7z"/>
<path class="st3" d="M1110.8,1103.7c5.8,1.2,11.6,2.5,17.3,3.9l0.4-1.7c-5.7-1.4-11.6-2.7-17.3-3.9L1110.8,1103.7z"/>
<path class="st3" d="M1076,1097.5c5.8,0.9,11.7,1.8,17.5,2.9l0.3-1.7c-5.8-1-11.7-2-17.5-2.9L1076,1097.5z"/>
<path class="st3" d="M1145.3,1112c5.7,1.5,11.4,3.2,17,4.9l0.5-1.6c-5.6-1.7-11.4-3.3-17.1-4.9L1145.3,1112z"/>
<path class="st3" d="M1196.1,1128.1l0.6-1.6c-5.6-2-11.2-4-16.8-5.9l-0.5,1.6C1184.9,1124.1,1190.5,1126.1,1196.1,1128.1z"/>
<path class="st3" d="M1040.8,1093.2c5.9,0.5,11.8,1.2,17.6,1.9l0.2-1.7c-5.8-0.7-11.8-1.3-17.7-1.9L1040.8,1093.2z"/>
<path class="st3" d="M1246,1147l-0.7,1.6c4.2,1.9,8.3,4,12.5,6h3.9C1256.5,1152,1251.2,1149.4,1246,1147z"/>
<path class="st3" d="M1005.4,1091c5.9,0.2,11.8,0.5,17.7,0.9l0.1-1.7c-5.9-0.4-11.8-0.7-17.7-0.9L1005.4,1091z"/>
<circle class="st1" cx="1313.3" cy="634.6" r="6.8"/>
<path class="st5" d="M15.4,701.3c0-7.4,6-13.4,13.4-13.4c5.4,0,10,3.2,12.2,7.8c2.2-0.7,4.4-1.4,6.6-2c-3-7.4-10.3-12.7-18.8-12.7
	c-11.2,0-20.3,9.1-20.3,20.3c0,1.8,0.3,3.6,0.7,5.3c2.2-0.8,4.3-1.6,6.5-2.4C15.6,703.2,15.4,702.3,15.4,701.3z"/>
<path class="st5" d="M28.8,721.5c11.2,0,20.3-9.1,20.3-20.3c0-2-0.3-4-0.9-5.9c-2.2,0.7-4.4,1.3-6.6,2c0.4,1.2,0.6,2.5,0.6,3.9
	c0,4-1.7,7.5-4.5,10c0.5,0.8,1.1,1.5,1.6,2.3l-1.4,1c-0.5-0.7-1-1.4-1.5-2.2c-2.2,1.5-4.8,2.4-7.6,2.4c-5.7,0-10.6-3.6-12.5-8.7
	c-2.2,0.8-4.3,1.6-6.4,2.4C12.7,716,20.2,721.5,28.8,721.5z"/>
<path class="st5" d="M49.6,729.2c0.5,0.7,0.9,1.5,1.4,2.2c9.4-6.7,15.5-17.7,15.5-30.1c0-3.7-0.6-7.3-1.6-10.7
	c-2.2,0.6-4.4,1.2-6.6,1.9c0.9,2.8,1.3,5.8,1.3,8.8c0,16.7-13.6,30.2-30.3,30.2c-13,0-24.1-8.2-28.4-19.7c-0.2,0.1-0.4,0.2-0.6,0.2
	v12.5c6.8,8.5,17.3,13.9,29,13.9c7.5,0,14.4-2.2,20.2-6c-0.5-0.7-0.9-1.5-1.4-2.2L49.6,729.2z"/>
<path class="st5" d="M29.3,664.1c-7.9,0-15.2,2.5-21.2,6.7c1.4,1.8,2.9,3.6,4.3,5.4c4.8-3.3,10.7-5.2,16.9-5.2
	c13,0,24,8.2,28.3,19.7c2.2-0.6,4.4-1.2,6.6-1.9C59.1,674.5,45.4,664.1,29.3,664.1z"/>
<path class="st5" d="M0.3,678.1v14.5C2.2,686.4,6,681,11,677.2c-1.4-1.8-2.8-3.6-4.3-5.4C4.3,673.6,2.2,675.7,0.3,678.1z"/>
<path class="st5" d="M29.3,647.3c-10.7,0-20.6,3.1-29,8.5v8.4c8-6.3,18-10,29-10c20.7,0,38.4,13.5,44.6,32.1
	c2.2-0.6,4.5-1.1,6.7-1.7C73.6,663,53.2,647.3,29.3,647.3z"/>
<path class="st5" d="M76.4,701.3c0,16-8,30.1-20.2,38.6c1.1,1.8,2.1,3.5,3.2,5.3l-1.5,0.9c-1-1.7-2.1-3.5-3.1-5.2
	c-7.3,4.7-16.1,7.5-25.4,7.5c-10.9,0-21-3.7-29-10v8.4c8.4,5.3,18.3,8.5,29,8.5c29.8,0,54-24.2,54-54c0-5.2-0.7-10.2-2.1-14.9
	c-2.2,0.5-4.5,1.1-6.7,1.7C75.7,692.2,76.4,696.7,76.4,701.3z"/>
<path class="st3" d="M723.8,891.4c2.5-2.5,4-5.9,4-9.6c0-2.2-0.5-4.2-1.4-6.1c0.4-0.2,0.8-0.5,1.3-0.7l-0.8-1.5
	c-0.4,0.2-0.9,0.5-1.3,0.7c-2.4-3.7-6.6-6.1-11.3-6.1c-3.2,0-6.2,1.1-8.5,3c-5.1-5.5-10.3-10.9-15.7-16.2
	c-14.7-14.7-30.1-28.7-46-41.8c1.6-2.2,2.5-4.9,2.5-7.9c0-7.5-6.1-13.6-13.6-13.6c-4.1,0-7.7,1.8-10.2,4.6
	c-42.3-32-88.3-58.6-137.5-79.4c-79.5-33.6-163.9-50.6-250.9-50.6c-25.1,0-49.9,1.4-74.5,4.2c-1.5-6.7-7.5-11.7-14.7-11.7
	c-0.3,0-0.5,0-0.8,0c-0.2-1.9-0.3-3.7-0.5-5.5l-1.7,0.1c0.1,1.9,0.3,3.7,0.5,5.6c-7.1,1.2-12.6,7.4-12.6,14.8c0,0.3,0,0.5,0,0.8
	c-16.7,2.7-33.2,6.1-49.5,10.1c-2.2,0.5-4.5,1.1-6.7,1.7c-3.2,0.8-6.4,1.7-9.6,2.6c-2.2,0.6-4.4,1.2-6.6,1.9c-3.3,1-6.7,1.9-10,2.9
	c-2.2,0.7-4.4,1.3-6.6,2c-3.8,1.2-7.6,2.4-11.4,3.7c-0.3-0.4-0.6-0.9-0.9-1.3l-1.4,1c0.2,0.3,0.4,0.6,0.6,0.8
	c-4,1.4-8.1,2.8-12.1,4.2c-2.2,0.8-4.3,1.6-6.5,2.4c-3,1.1-6,2.3-9,3.4v2c0.2-0.1,0.4-0.2,0.6-0.2c3-1.2,6-2.3,8.9-3.4
	c2.1-0.8,4.3-1.6,6.4-2.4c4.2-1.5,8.4-3,12.7-4.4c2.5,3.6,5,7.1,7.4,10.8c0.5,0.7,1,1.5,1.5,2.2l1.4-1c-0.5-0.8-1-1.5-1.6-2.3
	c-2.3-3.4-4.7-6.9-7.1-10.2c3.6-1.2,7.3-2.4,11-3.6c2.2-0.7,4.4-1.4,6.6-2c3.3-1,6.6-2,10-2.9c2.2-0.6,4.4-1.2,6.6-1.9
	c3.2-0.9,6.4-1.7,9.6-2.5c2.2-0.6,4.4-1.1,6.7-1.7c16.2-4,32.6-7.3,49.2-10c1.2,7,7.4,12.4,14.8,12.4c0.3,0,0.6,0,0.9,0
	c0.8,5.8,1.7,11.7,2.7,17.5l1.7-0.3c-1-5.8-1.9-11.6-2.7-17.4c7-1.2,12.4-7.4,12.4-14.8c0-0.5,0-1-0.1-1.5
	c24.4-2.8,49.1-4.3,74.2-4.3c145.3,0,279.4,48.4,387.2,130c-1.4,2.1-2.2,4.6-2.2,7.4c0,3.5,1.3,6.7,3.5,9.1
	c-2.1,2.2-4.2,4.4-6.4,6.6l1.2,1.2c2.1-2.2,4.3-4.4,6.4-6.6c2.4,2.1,5.5,3.3,8.9,3.3c3.9,0,7.3-1.6,9.8-4.2
	c21.7,17.9,42.3,37.3,61.5,57.8c-2.3,2.4-3.6,5.7-3.6,9.3c0,7.5,6.1,13.6,13.6,13.6c3,0,5.8-1,8.1-2.7
	c63.9,74.5,111.1,163.7,135.6,261.8h1.9c-8-32.2-18.6-63.9-31.6-94.8C802.1,998.3,767.1,941.9,723.8,891.4z M151.9,673.7
	c0,3.7-3,6.8-6.8,6.8c-3.7,0-6.8-3-6.8-6.8c0-3.7,3-6.8,6.8-6.8S151.9,670,151.9,673.7z"/>
<g>
	<path class="st3" d="M466.7,534.2l0.5-1.6c-5.1-1.7-10.2-3.4-15.2-5.2l-0.6,1.6C456.5,530.8,461.6,532.6,466.7,534.2z"/>
</g>
<path class="st3" d="M642.3,560.4H641v1.7h1.3c4.9,0,9.9-0.1,14.8-0.2v-1.7C652.2,560.4,647.2,560.4,642.3,560.4z"/>
<path class="st3" d="M624.9,561.9l0.1-1.7c-5.3-0.2-10.7-0.4-16-0.7l-0.1,1.7C614.1,561.5,619.5,561.7,624.9,561.9z"/>
<path class="st3" d="M561,554.6c-5.3-0.8-10.6-1.6-15.9-2.5l-0.3,1.7c5.3,0.9,10.6,1.8,15.9,2.5L561,554.6z"/>
<path class="st3" d="M592.7,560l0.1-1.7c-5.3-0.5-10.7-1-16-1.6l-0.2,1.7C582,559,587.4,559.5,592.7,560z"/>
<g>
	<path class="st3" d="M529,550.8l0.3-1.7c-5.2-1.1-10.5-2.2-15.7-3.4l-0.4,1.7C518.4,548.5,523.7,549.7,529,550.8z"/>
</g>
<path class="st3" d="M814.9,533.4c-4.6,1.5-9.2,2.9-13.8,4.2c-1.5-4-4.8-7.2-8.8-8.7c1-3.3,2-6.5,2.9-9.7l-1.7-0.5
	c-0.9,3.2-1.9,6.5-2.9,9.7c-1.1-0.3-2.3-0.4-3.6-0.4c-8.3,0-15,6.7-15,15c0,0.8,0.1,1.6,0.2,2.3c-1.3,0.3-2.5,0.6-3.8,0.9l0.4,1.7
	c1.3-0.3,2.5-0.6,3.8-0.9c1.8,6.3,7.6,11,14.5,11c8.3,0,15-6.7,15-15c0-1.3-0.2-2.5-0.5-3.7c4.6-1.4,9.2-2.8,13.8-4.2L814.9,533.4z
	 M787,549.8c-3.7,0-6.8-3-6.8-6.8s3-6.8,6.8-6.8c3.7,0,6.8,3,6.8,6.8S790.8,549.8,787,549.8z"/>
<g>
	<path class="st3" d="M497.6,543.4l0.4-1.7c-5.1-1.4-10.4-2.8-15.5-4.3L482,539C487.2,540.6,492.4,542,497.6,543.4z"/>
</g>
<path class="st3" d="M752.7,549.6c-5.2,1-10.5,2-15.8,2.9l0.3,1.7c5.3-0.9,10.6-1.9,15.8-2.9L752.7,549.6z"/>
<g>
	<path class="st3" d="M860,516.7l0.7,1.6c4.9-2.1,9.9-4.2,14.7-6.4l-0.7-1.6C869.8,512.5,864.9,514.6,860,516.7z"/>
</g>
<g>
	<path class="st3" d="M830.1,528.3l0.6,1.6c5-1.8,10.1-3.7,15.1-5.6l-0.6-1.6C840.2,524.6,835.1,526.5,830.1,528.3z"/>
</g>
<path class="st3" d="M689.1,558.5c-5.3,0.4-10.7,0.8-16,1.1l0.1,1.7c5.4-0.3,10.8-0.7,16.1-1.1L689.1,558.5z"/>
<g>
	<path class="st3" d="M903.4,496.2c-4.7,2.5-9.5,4.9-14.3,7.3l0.8,1.5c4.8-2.4,9.6-4.8,14.3-7.3L903.4,496.2z"/>
</g>
<g>
	<path class="st3" d="M436.3,523.3l0.6-1.6c-5-2-10-4-14.9-6.1l-0.7,1.6C426.3,519.3,431.3,521.3,436.3,523.3z"/>
</g>
<path class="st3" d="M721.3,556.7L721,555c-5.3,0.7-10.6,1.4-15.9,2l0.2,1.7C710.6,558.1,716,557.4,721.3,556.7z"/>
<g>
	<path class="st3" d="M407.3,509.1c-4.9-2.2-9.7-4.6-14.5-7l-0.8,1.5c4.8,2.4,9.7,4.7,14.6,7L407.3,509.1z"/>
</g>
<g>
	<path class="st3" d="M236.8,389.8c3.7,3.8,7.5,7.7,11.3,11.4l1.2-1.2c-3.8-3.7-7.6-7.6-11.3-11.4L236.8,389.8z"/>
</g>
<g>
	<path class="st3" d="M271.7,423.1l1.1-1.3c-4-3.5-8-7.1-11.9-10.7l-1.2,1.3C263.7,415.9,267.7,419.6,271.7,423.1z"/>
</g>
<g>
	<path class="st3" d="M958.3,463.1c-4.4,3-8.9,6-13.4,8.8l0.9,1.4c4.5-2.9,9-5.9,13.4-8.9L958.3,463.1z"/>
</g>
<g>
	<path class="st3" d="M932.2,481.9l-0.9-1.5c-4.6,2.7-9.2,5.5-13.9,8.1l0.8,1.5C923,487.4,927.6,484.7,932.2,481.9z"/>
</g>
<g>
	<path class="st3" d="M349.7,480.3l0.9-1.5c-4.5-2.8-9.1-5.6-13.6-8.6l-0.9,1.4C340.5,474.6,345.1,477.5,349.7,480.3z"/>
</g>
<g>
	<path class="st3" d="M296.6,443.6l1.1-1.4c-4.2-3.3-8.4-6.7-12.5-10.1l-1.1,1.3C288.1,436.9,292.4,440.3,296.6,443.6z"/>
</g>
<g>
	<path class="st3" d="M377.7,496.2l0.8-1.5c-4.7-2.5-9.5-5.1-14.1-7.8l-0.9,1.5C368.2,491.1,373,493.7,377.7,496.2z"/>
</g>
<g>
	<path class="st3" d="M322.6,462.7l1-1.4c-4.4-3-8.8-6.2-13.1-9.3l-1,1.4C313.8,456.5,318.2,459.6,322.6,462.7z"/>
</g>
<path class="st3" d="M125.7,899.8l-1.7,0.5c1.7,6,3.3,12.1,4.8,18.1l1.7-0.4C129,911.8,127.4,905.7,125.7,899.8z"/>
<path class="st3" d="M141.9,973l-1.7,0.3c1,6.1,1.9,12.4,2.7,18.5l1.7-0.2C143.9,985.4,142.9,979.2,141.9,973z"/>
<path class="st3" d="M108,846.3c-2.2-5.8-4.5-11.7-6.9-17.4l-1.6,0.7c2.4,5.8,4.7,11.6,6.9,17.4L108,846.3z"/>
<path class="st3" d="M85.9,794.7l-1.6,0.7c2.7,5.6,5.3,11.3,7.9,16.9l1.6-0.7C91.2,806,88.6,800.3,85.9,794.7z"/>
<path class="st3" d="M146.9,1010.2l-1.7,0.2c0.6,6.2,1.2,12.5,1.7,18.6l1.7-0.1C148.1,1022.7,147.5,1016.4,146.9,1010.2z"/>
<path class="st3" d="M6,668.2l-1.3,1.1c0.7,0.8,1.3,1.7,2,2.5c1.4,1.8,2.8,3.6,4.3,5.4c1.8,2.3,3.5,4.5,5.2,6.8l1.4-1
	c-1.7-2.3-3.5-4.5-5.2-6.8c-1.4-1.8-2.8-3.6-4.3-5.4C7.4,669.9,6.7,669.1,6,668.2z"/>
<path class="st3" d="M150.4,1078.9h-1.7c0,6.2-0.1,12.5-0.3,18.7h1.7C150.4,1091.4,150.4,1085.1,150.4,1078.9z"/>
<path class="st3" d="M144.5,1153.6c0,0.3-0.1,0.6-0.1,1h1.7c0-0.3,0.1-0.5,0.1-0.8L144.5,1153.6z"/>
<path class="st3" d="M77.5,777.9c-2.9-5.5-5.8-11.1-8.8-16.5l-1.5,0.8c3,5.4,6,11,8.8,16.5L77.5,777.9z"/>
<path class="st3" d="M133.2,936.5c1.3,6,2.6,12.2,3.8,18.3l1.7-0.3c-1.2-6.1-2.5-12.3-3.8-18.4L133.2,936.5z"/>
<path class="st3" d="M150.3,1066.4c-0.1-6.2-0.3-12.6-0.6-18.8l-1.7,0.1c0.3,6.2,0.5,12.5,0.6,18.7L150.3,1066.4z"/>
<path class="st3" d="M146.4,1135l1.7,0.1c0.5-6.2,1-12.5,1.3-18.7l-1.7-0.1C147.3,1122.5,146.9,1128.8,146.4,1135z"/>
<path class="st3" d="M120.3,881.8c-1.9-6-3.9-11.9-5.9-17.8l-1.6,0.6c2,5.9,4,11.8,5.9,17.8L120.3,881.8z"/>
<path class="st3" d="M59.4,745.2c-1-1.8-2.1-3.5-3.2-5.3c-1.7-2.9-3.5-5.7-5.2-8.5c-0.5-0.7-0.9-1.5-1.4-2.2l-1.5,0.9
	c0.5,0.7,0.9,1.5,1.4,2.2c1.8,2.8,3.5,5.6,5.2,8.5c1.1,1.7,2.1,3.5,3.1,5.2L59.4,745.2z"/>
<path class="st3" d="M505.2,914.3c-5.7,3.9-11.5,7.7-17.3,11.4l0.9,1.4c5.8-3.7,11.6-7.6,17.4-11.5L505.2,914.3z"/>
<path class="st3" d="M522.2,902.4l1,1.4c5.6-4.1,11.2-8.2,16.7-12.5l-1-1.4C533.4,894.1,527.8,898.3,522.2,902.4z"/>
<path class="st3" d="M377.9,983.6l0.7,1.6c6.3-2.7,12.7-5.5,19-8.3l-0.7-1.6C390.7,978.2,384.3,981,377.9,983.6z"/>
<path class="st3" d="M434.1,957.1c-6.1,3.2-12.3,6.4-18.5,9.4l0.8,1.5c6.2-3,12.4-6.2,18.5-9.4L434.1,957.1z"/>
<path class="st3" d="M571,863.7c-5.2,4.5-10.6,9-15.9,13.4l1.1,1.3c5.4-4.4,10.7-8.9,15.9-13.4L571,863.7z"/>
<path class="st3" d="M780.7,558.3c-2.3,6.5-4.8,13.1-7.3,19.5l1.6,0.6c2.5-6.5,5-13,7.3-19.6L780.7,558.3z"/>
<path class="st3" d="M586.6,849.9l1.2,1.3c5.1-4.7,10.2-9.5,15.2-14.3l-1.2-1.2C596.7,840.5,591.6,845.2,586.6,849.9z"/>
<g>
	<path class="st3" d="M804.1,478.5c-1.6,6.7-3.2,13.5-5,20.2l1.7,0.4c1.8-6.7,3.4-13.5,5-20.2L804.1,478.5z"/>
</g>
<g>
	<path class="st3" d="M812.3,437.8c-1.2,6.8-2.5,13.7-3.8,20.4l1.7,0.3c1.4-6.8,2.7-13.7,3.8-20.5L812.3,437.8z"/>
</g>
<path class="st3" d="M470.3,936.7c-5.9,3.5-11.9,7.1-17.9,10.4l0.8,1.5c6-3.4,12.1-6.9,18-10.5L470.3,936.7z"/>
<path class="st3" d="M94.6,1040.2v1.7h1.7c0.1,0,0.1,0,0.2,0c6.3,0,12.6-0.1,18.9-0.2v-1.7c-6.3,0.2-12.8,0.3-19.1,0.2H94.6z"/>
<path class="st3" d="M52.9,1040.7c6.9,0.4,13.9,0.7,20.8,0.9l0.1-1.7c-6.9-0.2-13.9-0.5-20.8-0.9L52.9,1040.7z"/>
<path class="st3" d="M749.7,635.7l-1.5-0.8c-3.1,6.2-6.3,12.4-9.5,18.5l1.5,0.8C743.4,648.2,746.6,642,749.7,635.7z"/>
<path class="st3" d="M672.3,759.3c4.2-5.5,8.4-11.1,12.5-16.7l-1.4-1c-4.1,5.6-8.3,11.2-12.5,16.6L672.3,759.3z"/>
<path class="st3" d="M136.2,1040.9c6.9-0.4,13.9-0.8,20.8-1.4l-0.1-1.7c-6.9,0.6-13.8,1-20.7,1.4V1040.9z"/>
<path class="st3" d="M659.3,775.6l-1.3-1.1c-4.4,5.3-8.9,10.7-13.4,15.9l1.3,1.1C650.4,786.3,654.9,781,659.3,775.6z"/>
<path class="st3" d="M11.6,1035.3l-0.2,1.7c6.9,0.8,13.8,1.5,20.7,2.1l0.1-1.7C25.4,1036.8,18.5,1036.1,11.6,1035.3z"/>
<path class="st3" d="M177.7,1037.4c6.9-0.8,13.8-1.6,20.7-2.6l-0.2-1.7c-6.8,1-13.8,1.8-20.6,2.6L177.7,1037.4z"/>
<path class="st3" d="M719.6,690.6c3.6-5.9,7.1-12,10.6-18l-1.5-0.8c-3.4,6-7,12.1-10.5,18L719.6,690.6z"/>
<g>
	<path class="st3" d="M818.2,396.6c-0.8,6.9-1.7,13.8-2.6,20.6l1.7,0.2c1-6.8,1.9-13.8,2.6-20.7L818.2,396.6z"/>
</g>
<g>
	<path class="st3" d="M821.9,376.1c0.2-2.6,0.4-5.2,0.6-7.9l-1.7-0.8c-0.2,2.8-0.4,5.7-0.7,8.5L821.9,376.1z"/>
</g>
<path class="st3" d="M308.9,1008.6c-2.1-4.9-6.9-8.3-12.5-8.3c-7.5,0-13.6,6.1-13.6,13.6s6.1,13.6,13.6,13.6s13.6-6.1,13.6-13.6
	c0-1.3-0.2-2.5-0.5-3.7c3.5-1.1,7.1-2.2,10.6-3.3l-0.5-1.6C316,1006.4,312.5,1007.5,308.9,1008.6z"/>
<path class="st3" d="M358.7,991.4c-6.4,2.5-13,4.9-19.5,7.2l0.6,1.6c6.5-2.3,13.1-4.7,19.5-7.2L358.7,991.4z"/>
<path class="st3" d="M765.5,597.1c-2.7,6.4-5.5,12.8-8.4,19.1l1.6,0.7c2.9-6.3,5.7-12.7,8.4-19.1L765.5,597.1z"/>
<path class="st3" d="M259.9,1023.5c6.7-1.5,13.5-3.2,20.2-5l-0.4-1.7c-6.7,1.7-13.5,3.4-20.2,4.9L259.9,1023.5z"/>
<path class="st3" d="M696.9,725.7c3.9-5.7,7.8-11.6,11.6-17.4l-1.4-0.9c-3.7,5.8-7.6,11.6-11.5,17.3L696.9,725.7z"/>
<path class="st3" d="M219,1031.7c6.8-1.2,13.7-2.4,20.5-3.8l-0.3-1.7c-6.8,1.3-13.6,2.6-20.4,3.8L219,1031.7z"/>
<path class="st3" d="M758.7,858.9l-0.8-1.5c-5.2,2.5-10.5,5.2-15.7,7.9l0.8,1.5C748.2,864,753.5,861.4,758.7,858.9z"/>
<path class="st3" d="M501.9,1091.6l-1.5-0.9c-2.3,3.8-4.6,7.7-6.9,11.6c0.5,0.2,1,0.5,1.6,0.7
	C497.4,1099.2,499.6,1095.4,501.9,1091.6z"/>
<path class="st3" d="M823.5,832l-0.6-1.6c-5.5,1.9-11.1,4-16.6,6.1l0.6,1.6C812.4,835.9,818,833.9,823.5,832z"/>
<path class="st3" d="M667.4,911.2c-4.7,3.4-9.5,6.9-14.2,10.5l1,1.4c4.6-3.5,9.4-7,14.1-10.4L667.4,911.2z"/>
<path class="st3" d="M942.9,803.3c5.8-0.8,11.6-1.5,17.4-2.1l-0.2-1.7c-5.8,0.6-11.7,1.3-17.5,2.1L942.9,803.3z"/>
<path class="st3" d="M613.8,956.7l-1.2-1.3c-4.3,3.9-8.7,8-12.9,12l1.2,1.2C605.1,964.7,609.5,960.6,613.8,956.7z"/>
<path class="st3" d="M908.2,809c5.7-1.1,11.5-2.2,17.3-3.1l-0.3-1.7c-5.8,1-11.6,2-17.3,3.1L908.2,809z"/>
<path class="st3" d="M639.4,932.5c-4.5,3.7-9.1,7.5-13.5,11.3l1.1,1.3c4.4-3.8,9-7.6,13.5-11.2L639.4,932.5z"/>
<path class="st3" d="M576.3,993.7c4-4.3,8.1-8.5,12.2-12.7l-1.2-1.2c-4.1,4.2-8.2,8.4-12.2,12.7L576.3,993.7z"/>
<path class="st3" d="M553.1,1020.2c3.7-4.5,7.6-9,11.4-13.4l-1.3-1.1c-3.9,4.4-7.7,8.9-11.4,13.4L553.1,1020.2z"/>
<path class="st3" d="M542,1033.9l-1.4-1.1c-3.6,4.6-7.2,9.3-10.7,14l1.4,1C534.9,1043.2,538.4,1038.4,542,1033.9z"/>
<path class="st3" d="M519.7,1061.2c-3.3,4.8-6.7,9.7-9.9,14.6l1.4,0.9c3.2-4.9,6.5-9.8,9.8-14.6L519.7,1061.2z"/>
<path class="st3" d="M857,821.3l-0.5-1.7c-5.6,1.6-11.3,3.3-16.9,5.1l0.5,1.6C845.7,824.6,851.4,822.9,857,821.3z"/>
<path class="st3" d="M891,812.6l-0.4-1.7c-5.7,1.3-11.5,2.7-17.1,4.1l0.4,1.7C879.6,815.3,885.3,813.9,891,812.6z"/>
<path class="st3" d="M790.7,844.5l-0.7-1.6c-5.4,2.2-10.8,4.6-16.1,7l0.7,1.6C779.9,849.1,785.3,846.7,790.7,844.5z"/>
<path class="st3" d="M696.6,891.5c-4.9,3.1-9.9,6.4-14.7,9.6l1,1.4c4.8-3.3,9.8-6.5,14.7-9.6L696.6,891.5z"/>
<path class="st3" d="M171.2,792l-1.6,0.5c1.8,5.6,3.7,11.3,5.7,16.8l1.6-0.6C174.9,803.2,173,797.6,171.2,792z"/>
<path class="st3" d="M269.1,979.2l-1.4,1c3.6,4.7,7.3,9.4,11,13.9l1.3-1.1C276.4,988.5,272.7,983.8,269.1,979.2z"/>
<path class="st3" d="M229.4,920.6l-1.5,0.9c3,5.1,6.2,10.1,9.3,15.1l1.4-0.9C235.6,930.7,232.4,925.7,229.4,920.6z"/>
<path class="st3" d="M183,825.4l-1.6,0.6c2.1,5.5,4.3,11,6.6,16.4l1.6-0.7C187.3,836.4,185.1,830.9,183,825.4z"/>
<path class="st3" d="M248.4,950.4l-1.4,1c3.3,4.9,6.7,9.8,10.2,14.5l1.4-1C255.1,960.2,251.7,955.3,248.4,950.4z"/>
<path class="st3" d="M210.6,890.6c2.7,5.2,5.6,10.4,8.4,15.6l1.5-0.8c-2.9-5.1-5.7-10.4-8.4-15.5L210.6,890.6z"/>
<path class="st3" d="M204.1,874c-2.6-5.3-5.1-10.7-7.5-16l-1.6,0.7c2.4,5.3,4.9,10.7,7.5,16L204.1,874z"/>
<path class="st3" d="M161.4,757.9l-1.7,0.4c1.5,5.7,3,11.5,4.7,17.1l1.7-0.5C164.4,769.4,162.9,763.6,161.4,757.9z"/>
<path class="st3" d="M424.5,1122.9l-0.9,1.4c0.2,0.1,0.3,0.2,0.5,0.3c0.3-0.5,0.6-1,0.9-1.5C424.7,1123.1,424.6,1123,424.5,1122.9z"
	/>
<g>
	<path class="st3" d="M167.7,425.3c1.7-5.6,3.5-11.3,5.3-16.9l-1.6-0.5c-1.8,5.6-3.6,11.3-5.3,17L167.7,425.3z"/>
</g>
<g>
	<path class="st3" d="M158.6,459.6c1.4-5.7,2.8-11.5,4.3-17.2l-1.7-0.4c-1.5,5.7-3,11.5-4.3,17.2L158.6,459.6z"/>
</g>
<path class="st3" d="M153.6,723.4l-1.7,0.3c1.1,5.8,2.4,11.6,3.7,17.4l1.7-0.4C155.9,735,154.7,729.1,153.6,723.4z"/>
<g>
	<path class="st3" d="M151.4,494.3c1-5.8,2.2-11.7,3.3-17.4l-1.7-0.3c-1.2,5.7-2.3,11.6-3.3,17.5L151.4,494.3z"/>
</g>
<path class="st3" d="M142.7,635.5c-0.3-5.9-0.5-11.8-0.7-17.7h-1.7c0.1,5.9,0.4,11.9,0.7,17.8L142.7,635.5z"/>
<g>
	<path class="st3" d="M146.2,529.3c0.7-5.8,1.5-11.7,2.3-17.6l-1.7-0.3c-0.9,5.8-1.6,11.8-2.3,17.6L146.2,529.3z"/>
</g>
<path class="st3" d="M144.4,547l-1.7-0.2c-0.5,5.9-1,11.8-1.3,17.7l1.7,0.1C143.4,558.8,143.9,552.8,144.4,547z"/>
<path class="st3" d="M140.5,582.3c-0.2,5.9-0.3,11.9-0.3,17.8h1.7c0-5.9,0.1-11.8,0.3-17.7L140.5,582.3z"/>
<path class="st3" d="M408.7,1114.5l1-1.4c-4.8-3.3-9.7-6.8-14.4-10.3l-1,1.4C399,1107.7,403.9,1111.1,408.7,1114.5z"/>
<path class="st3" d="M366.2,1082.3c4.6,3.8,9.2,7.5,13.9,11.1l1.1-1.4c-4.6-3.6-9.3-7.3-13.8-11.1L366.2,1082.3z"/>
<path class="st3" d="M326.6,1046.7l1.2-1.2c-4.2-4.1-8.4-8.3-12.5-12.6l-1.2,1.2C318.1,1038.3,322.4,1042.5,326.6,1046.7z"/>
<path class="st3" d="M352.6,1070.8l1.1-1.3c-4.4-3.9-8.9-7.9-13.2-11.9l-1.2,1.3C343.8,1062.9,348.2,1066.9,352.6,1070.8z"/>
<path class="st4" d="M495.1,1103.1c-0.7,1.2-1.5,2.5-2.2,3.7l-1.5-0.9c0.7-1.2,1.4-2.4,2.1-3.6c-6.9-3.2-14.5-5-22.6-4.9
	c-19.5,0-36.5,10.4-46.1,25.8c4.8,3.1,9.7,6.2,14.6,9.2l-0.9,1.5c-4.9-3-9.8-6.1-14.6-9.2c-4.5,7.9-7.1,16.9-7.1,26.6
	c0,1.1,0,2.2,0.1,3.3h39.5c-0.3-1.2-0.5-2.4-0.5-3.6c0-2.2,0.5-4.3,1.4-6.1c-1.2-0.7-2.3-1.3-3.5-2l0.9-1.5c1.2,0.7,2.3,1.3,3.5,2
	c2.4-3.6,6.6-6,11.3-6c7.5,0,13.6,6.1,13.6,13.6c0,1.3-0.2,2.5-0.5,3.6h41.9c0.1-1.1,0.1-2.3,0.1-3.5
	C524.8,1130.1,512.7,1111.9,495.1,1103.1z M476.3,1137.8l-1.5-0.8c2.6-5.2,5.3-10.5,8.1-15.7l1.5,0.8
	C481.6,1127.3,478.9,1132.6,476.3,1137.8z"/>
<path class="st3" d="M492.9,1106.8c0.7-1.2,1.4-2.5,2.2-3.7c-0.5-0.3-1-0.5-1.6-0.7c-0.7,1.2-1.4,2.4-2.1,3.6L492.9,1106.8z"/>
<path class="st4" d="M492.9,1106.8c0.7-1.2,1.4-2.5,2.2-3.7c-0.5-0.3-1-0.5-1.6-0.7c-0.7,1.2-1.4,2.4-2.1,3.6L492.9,1106.8z"/>
<path class="st3" d="M474.8,1137l1.5,0.8c2.6-5.2,5.3-10.5,8.1-15.6l-1.5-0.8C480.1,1126.5,477.4,1131.8,474.8,1137z"/>
<path class="st4" d="M474.8,1137l1.5,0.8c2.6-5.2,5.3-10.5,8.1-15.6l-1.5-0.8C480.1,1126.5,477.4,1131.8,474.8,1137z"/>
<path class="st3" d="M454.8,1141.4l-0.9,1.5c1.2,0.7,2.3,1.3,3.5,2c0.3-0.5,0.5-1,0.9-1.5C457.1,1142.7,455.9,1142.1,454.8,1141.4z"
	/>
<path class="st4" d="M454.8,1141.4l-0.9,1.5c1.2,0.7,2.3,1.3,3.5,2c0.3-0.5,0.5-1,0.9-1.5C457.1,1142.7,455.9,1142.1,454.8,1141.4z"
	/>
<path class="st3" d="M439.5,1132.4c-4.9-3-9.8-6.1-14.6-9.2c-0.3,0.5-0.6,1-0.9,1.5c4.8,3.1,9.7,6.2,14.6,9.2L439.5,1132.4z"/>
<path class="st4" d="M439.5,1132.4c-4.9-3-9.8-6.1-14.6-9.2c-0.3,0.5-0.6,1-0.9,1.5c4.8,3.1,9.7,6.2,14.6,9.2L439.5,1132.4z"/>
<path class="st3" d="M469.6,1137.3c-4.7,0-8.9,2.4-11.3,6c-0.3,0.5-0.6,1-0.9,1.5c-0.9,1.8-1.4,3.9-1.4,6.1c0,1.3,0.2,2.5,0.5,3.6
	h26.2c0.3-1.2,0.5-2.4,0.5-3.6C483.2,1143.4,477.1,1137.3,469.6,1137.3z"/>
<g>
	<circle class="st1" cx="787" cy="543" r="6.8"/>
</g>
<circle class="st1" cx="145.1" cy="673.7" r="6.8"/>
</svg>
